<?xml version="1.0" encoding="UTF-8"?>
<svg version="1.1" xmlns="http://www.w3.org/2000/svg" width="1024" height="1024">
<path d="M0 0 C337.92 0 675.84 0 1024 0 C1024 337.92 1024 675.84 1024 1024 C686.08 1024 348.16 1024 0 1024 C0 686.08 0 348.16 0 0 Z " fill="#EEEEEE" transform="translate(0,0)"/>
<path d="M0 0 C3.78570915 1.44939255 6.78104373 3.10610918 10.0625 5.5 C12.96461902 7.61063201 15.73856835 9.49356506 19 11 C19 11.66 19 12.32 19 13 C19.55469971 13.16580566 20.10939941 13.33161133 20.6809082 13.50244141 C26.24524761 15.24869373 31.12071229 17.5156444 36.1875 20.375 C47.64390847 26.61617775 59.6948167 30.3165292 72.1875 33.88671875 C75.48949488 34.85092832 78.74092565 35.90202154 82 37 C82.6909548 63.13935164 81.6050386 89.01659796 73 114 C72 115 72 115 69.68334961 115.11352539 C68.68311768 115.10828857 67.68288574 115.10305176 66.65234375 115.09765625 C65.57275391 115.09443359 64.49316406 115.09121094 63.38085938 115.08789062 C62.24455078 115.07951172 61.10824219 115.07113281 59.9375 115.0625 C58.79732422 115.05798828 57.65714844 115.05347656 56.48242188 115.04882812 C53.65489649 115.03699747 50.8274736 115.0205141 48 115 C48.23050049 115.67514648 48.46100098 116.35029297 48.69848633 117.04589844 C51.10768283 124.42245746 51.30312899 131.54234057 51.3125 139.25 C51.32023437 140.79397461 51.32023437 140.79397461 51.328125 142.36914062 C51.07350799 170.50431997 28.59268511 190.5954984 10.02612305 209.15917969 C8.40190031 210.78564893 6.7859242 212.42005482 5.16992188 214.0546875 C4.13329879 215.09423515 3.09620816 216.13331683 2.05859375 217.171875 C1.13361084 218.1009668 0.20862793 219.03005859 -0.74438477 219.98730469 C-3 222 -3 222 -5 222 C-3.50558576 226.68702647 -1.91096582 231.27763111 0 235.8125 C3.99873216 245.77284932 5.5144636 255.23129129 5.375 265.9375 C5.36339844 267.083396 5.35179687 268.22929199 5.33984375 269.40991211 C4.9314904 290.47764217 -2.86008852 308.33419849 -18 323 C-29.44122473 333.78108829 -46.7751836 345 -63 345 C-60.74636332 358.04902916 -56.65224411 369.25580659 -50.76269531 381.10913086 C-50 383 -50 383 -50 386 C-52.522721 383.6478496 -55.04281698 381.29290413 -57.5625 378.9375 C-58.26697266 378.28072266 -58.97144531 377.62394531 -59.69726562 376.94726562 C-61.80682017 374.97381137 -63.90396031 372.98779117 -66 371 C-66.93960571 370.13133301 -66.93960571 370.13133301 -67.89819336 369.24511719 C-71.65897252 365.66752784 -74.3811125 362.02337614 -77.06860352 357.59350586 C-81.39589792 350.58046425 -84.84638188 345.92846297 -93.0625 343.9375 C-94.4240386 343.62955599 -95.78601314 343.32353245 -97.1484375 343.01953125 C-105.8700203 340.71087698 -112.51324413 334.6709052 -117 327 C-120.34347687 320.13456884 -120.28345606 311.25772596 -118.1015625 304.01953125 C-117.1652411 301.9310697 -116.18697906 299.95533604 -115 298 C-114.67 298 -114.34 298 -114 298 C-113.74476563 299.19496094 -113.74476563 299.19496094 -113.484375 300.4140625 C-111.37033649 310.48961054 -111.37033649 310.48961054 -104.4375 317.65234375 C-91.97335907 324.69657233 -79.19902572 324.42794164 -65.59423828 320.76586914 C-50.56043646 316.38023367 -39.14957808 307.40636699 -31 294 C-23.72033069 279.32901001 -21.27489845 263.60182103 -26.34375 247.80859375 C-26.5603125 247.21175781 -26.776875 246.61492187 -27 246 C-40.59095857 256.78165428 -51.36331835 271.57203965 -57 288 C-53.42152963 289.45232253 -49.81939893 290.81226545 -46.1875 292.125 C-45.21167969 292.47820312 -44.23585938 292.83140625 -43.23046875 293.1953125 C-42.49441406 293.46085937 -41.75835938 293.72640625 -41 294 C-42.42866181 297.43020287 -42.83202458 297.91601229 -46.375 299.6875 C-50.72691717 301.26319415 -54.12178331 302.13056201 -58.75 302.0625 C-60.85375 302.0315625 -60.85375 302.0315625 -63 302 C-63.66 305.63 -64.32 309.26 -65 313 C-73.71211388 315.86425662 -81.86514363 316.86199012 -91 316 C-94 314 -94 314 -94.66796875 311.5234375 C-97.63367118 280.05210109 -87.51506855 255.56037764 -67.60546875 231.30078125 C-65.28499948 228.51746906 -62.93899235 225.75689968 -60.578125 223.0078125 C-59.24274908 221.44987393 -57.91068272 219.88806672 -56.63085938 218.28417969 C-55.46126074 216.8226095 -54.23475919 215.40695349 -53 214 C-52.34 214 -51.68 214 -51 214 C-53.44540536 209.5308109 -56.52428907 205.920277 -59.875 202.125 C-63.87783201 197.58313325 -67.54935128 192.97861125 -71 188 C-64.91763248 179.46028629 -58.51876953 171.20837708 -52 163 C-47.8223245 164.55810741 -45.53058288 167.63843887 -42.8125 171 C-41.84087272 172.17142715 -40.86820147 173.34198911 -39.89453125 174.51171875 C-39.41064941 175.09614746 -38.92676758 175.68057617 -38.42822266 176.28271484 C-36.31662731 178.82168265 -34.17345934 181.3260056 -32 183.8125 C-31.29875 184.62332031 -30.5975 185.43414063 -29.875 186.26953125 C-28.05781876 188.33910826 -28.05781876 188.33910826 -25 188 C-22.84768079 186.17575577 -22.84768079 186.17575577 -20.6875 183.8125 C-15.7236416 178.66420098 -15.7236416 178.66420098 -12.875 176.4375 C-8.17067123 172.44904735 -4.4079212 167.7190762 -0.5078125 162.95703125 C0.14525879 162.16244507 0.14525879 162.16244507 0.81152344 161.35180664 C2.06994047 159.81714601 3.3203171 158.27590287 4.5703125 156.734375 C7 154 7 154 9.609375 152.01171875 C12.45489078 149.61720792 13.57328174 147.42455624 15.125 144.0625 C17.25429584 139.51041079 19.5850445 135.24728227 22.26171875 130.99609375 C23.74503889 126.98563561 21.47833376 122.81286915 20 119 C18.47069579 116.02427531 18.47069579 116.02427531 17 114 C14.2241021 119.12473459 12.10390792 124.33668807 10.125 129.8125 C3.27207809 148.40748799 -8.53109473 162.68152756 -23 176 C-23.33 176 -23.66 176 -24 176 C-27.15081516 135.91462937 -27.15081516 135.91462937 -16.16503906 120.69433594 C-13.5229422 116.85188995 -12.31141685 112.42753579 -11 108 C-10.42378906 106.14375 -10.42378906 106.14375 -9.8359375 104.25 C-7.10458541 95.15078021 -5.0698682 85.94658448 -3.25 76.625 C-2.93397827 75.02192993 -2.93397827 75.02192993 -2.61157227 73.38647461 C-2.41490967 72.34370361 -2.21824707 71.30093262 -2.015625 70.2265625 C-1.75700684 68.85878662 -1.75700684 68.85878662 -1.49316406 67.46337891 C-0.16527651 58.13792701 0.14280375 48.86089445 0.09765625 39.453125 C0.0962413 38.31591003 0.09482635 37.17869507 0.09336853 36.00701904 C0.08782942 32.42131777 0.07528877 28.83568198 0.0625 25.25 C0.05747711 22.79948008 0.0529156 20.34895916 0.04882812 17.8984375 C0.03788004 11.93226982 0.02120392 5.96613959 0 0 Z " fill="#E98C30" transform="translate(569,358)"/>
<path d="M0 0 C0.33 0 0.66 0 1 0 C0.99555878 0.5694635 0.99111755 1.138927 0.98654175 1.72564697 C0.94159106 7.76254716 0.91184328 13.79939835 0.89013672 19.83642578 C0.88020426 22.07635434 0.86665377 24.31627038 0.84912109 26.55615234 C0.70009683 46.11339561 1.84350243 64.92804543 5.6875 84.125 C5.81394897 84.77011536 5.94039795 85.41523071 6.07067871 86.07989502 C8.3554055 97.70533112 11.25593994 109.12270554 14.484375 120.5234375 C15.84096069 125.31838175 16.97044713 130.12476436 18 135 C18.66 135 19.32 135 20 135 C20.81997072 121.0548363 21.20116123 107.15625709 21.1875 93.1875 C21.18756042 92.23075378 21.18762085 91.27400757 21.18768311 90.28826904 C21.86528571 65.75246133 21.86528571 65.75246133 17 42 C15.58370666 37.24405201 14.7494917 33.01016602 15 28 C18.27522881 31.76044789 20.56523878 35.71147842 22.8515625 40.109375 C23.86372052 42.15363884 23.86372052 42.15363884 26 43 C26.33 43.99 26.66 44.98 27 46 C28.0923543 47.16062645 29.19588852 48.31237163 30.34765625 49.4140625 C32.41930817 51.40245654 34.42242107 53.45433809 36.4375 55.5 C39.02608268 58.10586871 41.6020412 60.55698026 44.5 62.8125 C48.03361043 65.90440913 47.89929785 67.88357366 48.31640625 72.5078125 C48.66152667 78.33425718 48.83478543 84.16613945 49 90 C49.03377747 91.08386993 49.03377747 91.08386993 49.0682373 92.18963623 C50.06353911 124.65604099 49.27616135 157.7612385 36 188 C35.62810547 188.88300781 35.25621094 189.76601563 34.87304688 190.67578125 C28.49517423 205.67155987 20.20668366 218.72467496 10.52124023 231.79956055 C8.97172101 233.92826919 8.97172101 233.92826919 7.9375 236.140625 C6.51748468 238.95698871 4.24349102 240.80209516 2 243 C-14.60192436 262.59184439 -30.5630298 284.00898949 -29.8125 310.625 C-29.63924479 317.82764612 -29.77978776 322.62633175 -34.2734375 328.546875 C-36.50635543 331.71943712 -37.8455924 335.02412345 -39.25 338.625 C-39.50297852 339.27073975 -39.75595703 339.91647949 -40.01660156 340.58178711 C-41.70759889 345.00671516 -43.05366118 349.36293978 -44 354 C-53.55832448 351.31172124 -60.36522724 341.77525006 -65.40625 333.765625 C-74.21641863 317.75690395 -75.04146684 299.6412172 -70.32421875 282.265625 C-63.52377578 259.32915786 -48.97541083 239.39819074 -34.39794922 220.80126953 C-32.80114268 218.74377065 -31.22958364 216.66829872 -29.66015625 214.58984375 C-29.08442871 213.82921631 -28.50870117 213.06858887 -27.91552734 212.28491211 C-26.79210473 210.79944839 -25.671194 209.31208048 -24.55322266 207.82250977 C-21.59002606 203.91773238 -18.48796885 200.45710187 -15 197 C-14.505 196.01 -14.01 195.02 -13.5 194 C-11.80394476 190.60788951 -9.70117427 188.63364491 -7 186 C-5.34676551 183.45656233 -3.92732951 180.86374283 -2.5 178.1875 C-2.005 177.465625 -1.51 176.74375 -1 176 C-0.01 176 0.98 176 2 176 C0.79292106 171.82274955 -0.41565233 167.64593497 -1.62548828 163.46948242 C-2.03505801 162.05488175 -2.44425084 160.64017189 -2.85302734 159.2253418 C-6.36169733 147.08292983 -9.94155092 134.97242478 -14 123 C-14.49114704 136.38942404 -13.92319129 149.01953702 -11.33496094 162.19140625 C-11.15094727 163.14144531 -10.96693359 164.09148437 -10.77734375 165.0703125 C-10.60452881 165.90320801 -10.43171387 166.73610352 -10.25366211 167.59423828 C-9.77101789 172.17169369 -10.93923988 175.35258498 -13.4765625 179.109375 C-13.97945801 179.86041504 -14.48235352 180.61145508 -15.00048828 181.38525391 C-15.80462158 182.55580322 -15.80462158 182.55580322 -16.625 183.75 C-17.16753418 184.54970215 -17.71006836 185.3494043 -18.26904297 186.17333984 C-26.93670027 198.86332782 -26.93670027 198.86332782 -30 202 C-30.66 202 -31.32 202 -32 202 C-32.79491387 198.39654185 -33.58531377 194.79210707 -34.375 191.1875 C-34.59671875 190.18267578 -34.8184375 189.17785156 -35.046875 188.14257812 C-41.90284039 156.78661876 -42.66976715 125.96788374 -42 94 C-41.98408813 93.15743652 -41.96817627 92.31487305 -41.95178223 91.44677734 C-41.86175432 86.87236189 -41.73026777 82.30309076 -41.5249939 77.73233032 C-41.4403241 75.75350234 -41.38337797 73.77354834 -41.32739258 71.79370117 C-40.85520982 63.56654521 -39.07679526 59.50600622 -33 54 C-20.29273004 39.91595409 -10.4280153 24.46307774 -3 7 C-2.43908052 5.69258884 -1.87788644 4.38529546 -1.31640625 3.078125 C-0.88199219 2.06234375 -0.44757813 1.0465625 0 0 Z " fill="#26B8AD" transform="translate(512,283)"/>
<path d="M0 0 C3.78570915 1.44939255 6.78104373 3.10610918 10.0625 5.5 C12.96461902 7.61063201 15.73856835 9.49356506 19 11 C19 11.66 19 12.32 19 13 C19.55469971 13.16580566 20.10939941 13.33161133 20.6809082 13.50244141 C26.24524761 15.24869373 31.12071229 17.5156444 36.1875 20.375 C47.64390847 26.61617775 59.6948167 30.3165292 72.1875 33.88671875 C75.48949488 34.85092832 78.74092565 35.90202154 82 37 C82.6909548 63.13935164 81.6050386 89.01659796 73 114 C72 115 72 115 69.68334961 115.11352539 C68.68311768 115.10828857 67.68288574 115.10305176 66.65234375 115.09765625 C65.57275391 115.09443359 64.49316406 115.09121094 63.38085938 115.08789062 C62.24455078 115.07951172 61.10824219 115.07113281 59.9375 115.0625 C58.79732422 115.05798828 57.65714844 115.05347656 56.48242188 115.04882812 C53.65489649 115.03699747 50.8274736 115.0205141 48 115 C48.23050049 115.67514648 48.46100098 116.35029297 48.69848633 117.04589844 C51.10768283 124.42245746 51.30312899 131.54234057 51.3125 139.25 C51.32023438 140.79397461 51.32023438 140.79397461 51.328125 142.36914062 C51.17754222 159.00853801 43.4123951 174.05843666 32 186 C28.70318495 187.9681862 26.84275516 189 23 189 C21.76155349 185.28466047 22.43248378 183.70392055 23.41015625 179.9375 C25.19281351 172.02181026 25.49110109 164.42513848 25.44604492 156.33203125 C25.43750627 154.00171148 25.46647329 151.67383172 25.49804688 149.34375 C25.55745854 136.53774299 23.34184533 125.3247238 17 114 C14.2241021 119.12473459 12.10390792 124.33668807 10.125 129.8125 C3.27207809 148.40748799 -8.53109473 162.68152756 -23 176 C-23.33 176 -23.66 176 -24 176 C-27.15081516 135.91462937 -27.15081516 135.91462937 -16.16503906 120.69433594 C-13.5229422 116.85188995 -12.31141685 112.42753579 -11 108 C-10.61585938 106.7625 -10.23171875 105.525 -9.8359375 104.25 C-7.10458541 95.15078021 -5.0698682 85.94658448 -3.25 76.625 C-3.03931885 75.55628662 -2.8286377 74.48757324 -2.61157227 73.38647461 C-2.41490967 72.34370361 -2.21824707 71.30093262 -2.015625 70.2265625 C-1.84321289 69.31471191 -1.67080078 68.40286133 -1.49316406 67.46337891 C-0.16527651 58.13792701 0.14280375 48.86089445 0.09765625 39.453125 C0.09553383 37.74730255 0.09553383 37.74730255 0.09336853 36.00701904 C0.08782942 32.42131777 0.07528877 28.83568198 0.0625 25.25 C0.05747711 22.79948008 0.0529156 20.34895916 0.04882812 17.8984375 C0.03788004 11.93226982 0.02120392 5.96613959 0 0 Z " fill="#ED8C26" transform="translate(569,358)"/>
<path d="M0 0 C0.06152854 33.59897801 -8.73946801 62.844333 -25 92 C-22.78413344 94.27816944 -20.64127207 95.94679664 -17.9375 97.625 C-5.4969842 105.84462651 2.75564322 116.25603164 9.5625 129.375 C9.92166504 130.05312744 10.28083008 130.73125488 10.65087891 131.42993164 C12.66194014 135.47765673 13.29137077 137.69114829 12 142 C10.7565918 144.12475586 10.7565918 144.12475586 9.19921875 146.21484375 C8.63396484 146.98376953 8.06871094 147.75269531 7.48632812 148.54492188 C6.5959082 149.72924805 6.5959082 149.72924805 5.6875 150.9375 C4.52380553 152.5084231 3.36102509 154.08002374 2.19921875 155.65234375 C1.64669434 156.39339355 1.09416992 157.13444336 0.52490234 157.89794922 C-0.8199792 159.75184452 -2.06838708 161.632169 -3.29296875 163.56640625 C-3.85628906 164.36949219 -4.41960937 165.17257812 -5 166 C-5.66 166 -6.32 166 -7 166 C-7.41958984 164.16888672 -7.41958984 164.16888672 -7.84765625 162.30078125 C-11.71887382 146.1152008 -17.48312815 130.69632023 -32.0625 121.0625 C-36.688338 118.45352737 -41.62375027 116 -47 116 C-43.64481569 125.42032517 -39.58237526 134.24800659 -34.97460938 143.10693359 C-34.10015226 144.80546578 -33.25879315 146.52094178 -32.421875 148.23828125 C-27.17524146 158.66530296 -20.06242374 167.74938508 -13 177 C-13.53109375 178.02738281 -14.0621875 179.05476562 -14.609375 180.11328125 C-18.60538762 187.92401292 -22.30280153 195.62448895 -25 204 C-45.0966693 195.93398987 -60.57872041 157.08639524 -68.52099609 138.53051758 C-81.97364214 106.32512958 -86.75102022 73.78956761 -86 39 C-82.06442471 37.82677153 -78.12624273 36.66254629 -74.1875 35.5 C-73.06794922 35.16613281 -71.94839844 34.83226562 -70.79492188 34.48828125 C-69.18520508 34.01455078 -69.18520508 34.01455078 -67.54296875 33.53125 C-66.55321045 33.23798828 -65.56345215 32.94472656 -64.54370117 32.64257812 C-62 32 -62 32 -59 32 C-59.01047363 32.69859131 -59.02094727 33.39718262 -59.03173828 34.11694336 C-59.21126098 47.95268959 -58.94657362 61.29968792 -57 75 C-56.6254154 78.66351968 -56.30122765 82.32977886 -56 86 C-41.61216406 75.6018586 -34.62244497 52.65888999 -31 36 C-30.79452835 34.27319818 -30.62208623 32.54211581 -30.484375 30.80859375 C-29.51322199 18.6803102 -29.51322199 18.6803102 -26.58935547 15.43359375 C-23.02064877 12.65083411 -19.04272159 10.80748665 -14.93603516 8.95605469 C-10.94874488 6.98704728 -7.59127561 4.13052973 -4.07421875 1.43359375 C-2 0 -2 0 0 0 Z " fill="#194D8B" transform="translate(461,355)"/>
<path d="M0 0 C2.12508244 3.18762365 2.5020163 5.26512223 3 9 C2.34 9 1.68 9 1 9 C1.95483849 11.45529899 2.91947188 13.84341754 4.125 16.1875 C5 18 5 18 5 20 C4.505 20.495 4.505 20.495 4 21 C4.66 21.33 5.32 21.66 6 22 C5.7215625 23.3921875 5.7215625 23.3921875 5.4375 24.8125 C4.75876119 28.01343771 4.75876119 28.01343771 6 31 C7.10868317 34.32604951 7.54177532 37.53058454 8 41 C7.67 41 7.34 41 7 41 C6.96241577 41.97610229 6.96241577 41.97610229 6.92407227 42.97192383 C6.80806298 45.91898046 6.68535885 48.8657213 6.5625 51.8125 C6.52318359 52.83666016 6.48386719 53.86082031 6.44335938 54.91601562 C6.40146484 55.89892578 6.35957031 56.88183594 6.31640625 57.89453125 C6.27974854 58.80050049 6.24309082 59.70646973 6.20532227 60.63989258 C5.76460872 65.70574023 3.51640232 67.55342694 0 71 C-16.60192436 90.59184439 -32.5630298 112.00898949 -31.8125 138.625 C-31.63924479 145.82764612 -31.77978776 150.62633175 -36.2734375 156.546875 C-38.50635543 159.71943712 -39.8455924 163.02412345 -41.25 166.625 C-41.50297852 167.27073975 -41.75595703 167.91647949 -42.01660156 168.58178711 C-43.70759889 173.00671516 -45.05366118 177.36293978 -46 182 C-55.55832448 179.31172124 -62.36522724 169.77525006 -67.40625 161.765625 C-76.21641863 145.75690395 -77.04146684 127.6412172 -72.32421875 110.265625 C-65.52377578 87.32915786 -50.97541083 67.39819074 -36.39794922 48.80126953 C-34.80114268 46.74377065 -33.22958364 44.66829872 -31.66015625 42.58984375 C-31.08442871 41.82921631 -30.50870117 41.06858887 -29.91552734 40.28491211 C-28.79210473 38.79944839 -27.671194 37.31208048 -26.55322266 35.82250977 C-23.59002606 31.91773238 -20.48796885 28.45710187 -17 25 C-16.505 24.01 -16.01 23.02 -15.5 22 C-13.80394476 18.60788951 -11.70117427 16.63364491 -9 14 C-7.34676551 11.45656233 -5.92732951 8.86374283 -4.5 6.1875 C-4.005 5.465625 -3.51 4.74375 -3 4 C-2.01 4 -1.02 4 0 4 C0 2.68 0 1.36 0 0 Z " fill="#2CADA6" transform="translate(514,455)"/>
<path d="M0 0 C8.09530896 7.2271164 11.46577664 21.56317569 12.21582031 32.00439453 C13.18018658 55.31222523 9.78875857 76.231499 -6.16503906 94.09985352 C-18.30708652 107.01249725 -34.30443216 117.64935993 -52 121 C-53.32 121 -54.64 121 -56 121 C-53.74636332 134.04902916 -49.65224411 145.25580659 -43.76269531 157.10913086 C-43 159 -43 159 -43 162 C-45.522721 159.6478496 -48.04281698 157.29290413 -50.5625 154.9375 C-51.26697266 154.28072266 -51.97144531 153.62394531 -52.69726562 152.94726562 C-54.80682017 150.97381137 -56.90396031 148.98779117 -59 147 C-59.62640381 146.42088867 -60.25280762 145.84177734 -60.89819336 145.24511719 C-64.65897252 141.66752784 -67.3811125 138.02337614 -70.06860352 133.59350586 C-74.39589792 126.58046425 -77.84638188 121.92846297 -86.0625 119.9375 C-87.4240386 119.62955599 -88.78601314 119.32353245 -90.1484375 119.01953125 C-98.8700203 116.71087698 -105.51324413 110.6709052 -110 103 C-113.34347687 96.13456884 -113.28345606 87.25772596 -111.1015625 80.01953125 C-110.1652411 77.9310697 -109.18697906 75.95533604 -108 74 C-107.67 74 -107.34 74 -107 74 C-106.82984375 74.79664063 -106.6596875 75.59328125 -106.484375 76.4140625 C-104.37033649 86.48961054 -104.37033649 86.48961054 -97.4375 93.65234375 C-84.97335907 100.69657233 -72.19902572 100.42794164 -58.59423828 96.76586914 C-43.56043646 92.38023367 -32.14957808 83.40636699 -24 70 C-17.85930777 57.62443314 -14.10556326 43.25357144 -17.96484375 29.58203125 C-18.69349598 27.76408073 -19.47225093 25.96462797 -20.3203125 24.19921875 C-21 22 -21 22 -20.40625 20.0078125 C-15.27190493 12.6771087 -7.77235004 6.78213698 -1 1 C-0.67 0.67 -0.34 0.34 0 0 Z " fill="#A81768" transform="translate(562,582)"/>
<path d="M0 0 C3.14990933 3.04829935 6.09581398 6.21607695 9 9.5 C34.76125222 38.10944347 69.61963875 60.16871288 108 67 C109.47926335 66.98783501 110.95850755 66.96831234 112.4375 66.9375 C116.79493675 68.2370864 117.13338215 69.16540213 119.25 73.0625 C122.50523335 80.43569248 124.30652616 88.15025066 126 96 C91.02455354 95.09475315 51.82592165 67.90193547 28.57739258 43.50268555 C19.10278476 33.25919159 11.2884083 21.85934123 4 10 C3.62053223 9.38334473 3.24106445 8.76668945 2.85009766 8.13134766 C0 3.35865448 0 3.35865448 0 0 Z " fill="#DBB61D" transform="translate(525,288)"/>
<path d="M0 0 C0.495 0.99 0.495 0.99 1 2 C-0.02350313 4.17609675 -1.09546977 6.18414489 -2.3125 8.25 C-2.67496826 8.87116699 -3.03743652 9.49233398 -3.41088867 10.13232422 C-10.38634423 21.87096451 -18.52428203 32.19611864 -28 42 C-28.80050781 42.85207031 -29.60101563 43.70414062 -30.42578125 44.58203125 C-48.54572722 63.41372633 -72.41303895 77.41931561 -97 86 C-97.92941406 86.35578125 -98.85882813 86.7115625 -99.81640625 87.078125 C-107.54951271 90.02616559 -115.66020022 93 -124 93 C-123.4203095 87.58484242 -122.08871397 82.94233996 -120.125 77.875 C-119.86847656 77.18535156 -119.61195313 76.49570312 -119.34765625 75.78515625 C-118.83776139 74.44508081 -118.30595419 73.11309659 -117.75048828 71.79125977 C-117.11088645 70.26466295 -116.54707173 68.70667749 -116 67.14453125 C-112.54532778 63.44020499 -107.72330746 63.52952378 -102.875 62.8125 C-62.75836198 55.82707379 -25.6068304 31.29723716 0 0 Z " fill="#25B2C6" transform="translate(499,291)"/>
<path d="M0 0 C4.17642783 1.55764208 6.47216323 4.63705637 9.1875 8 C13.33616611 13.07126269 13.33616611 13.07126269 17.75390625 17.90625 C18.57761719 18.7621875 19.40132812 19.618125 20.25 20.5 C20.99765625 21.2528125 21.7453125 22.005625 22.515625 22.78125 C24 25 24 25 23.9609375 27.5703125 C22.84367502 30.39526073 21.74351118 31.50030969 19.375 33.375 C16.56636961 35.67797679 13.95134777 38.00284586 11.4375 40.625 C8.22675565 43.90232661 4.80225007 46.43930097 1 49 C-5.95913644 41.54656976 -12.64004798 33.9774213 -19 26 C-14.72959673 18.63723574 -9.49858957 12.14594149 -4.19824219 5.51367188 C-2.76367368 3.70146227 -1.37196455 1.85997879 0 0 Z " fill="#DF612A" transform="translate(517,521)"/>
<path d="M0 0 C4.26587648 0.74509551 8.33054856 1.96535441 12.4375 3.3125 C13.40139648 3.61317383 13.40139648 3.61317383 14.38476562 3.91992188 C19.31907931 5.53797601 24.0975219 7.57866423 27.375 11.75 C29.14508535 18.12230726 27.69217655 24.99626822 26.5625 31.375 C26.42779297 32.18066406 26.29308594 32.98632812 26.15429688 33.81640625 C25.14106346 39.71787309 25.14106346 39.71787309 24 42 C21.10983576 42.96338808 19.25824745 43.12877169 16.25390625 43.1328125 C15.33416016 43.13410156 14.41441406 43.13539063 13.46679688 43.13671875 C12.02916992 43.13091797 12.02916992 43.13091797 10.5625 43.125 C9.60794922 43.12886719 8.65339844 43.13273437 7.66992188 43.13671875 C6.74888672 43.13542969 5.82785156 43.13414062 4.87890625 43.1328125 C4.0391626 43.13168457 3.19941895 43.13055664 2.33422852 43.12939453 C0.09241513 43.0051229 -1.84895454 42.62396739 -4 42 C-4.19014532 35.99802149 -3.44065504 30.30572823 -2.5625 24.375 C-1.40200294 16.25219646 -0.44853099 8.1972905 0 0 Z " fill="#F7F6F0" transform="translate(596,404)"/>
<path d="M0 0 C0.33 0 0.66 0 1 0 C1.25523437 1.19496094 1.25523437 1.19496094 1.515625 2.4140625 C3.61588857 12.313978 3.61588857 12.313978 10.24609375 19.58203125 C15.38923881 22.65000312 19.83692957 24.25995954 25.75 25.1875 C29.70995623 25.96166206 31.4799875 26.421901 34.203125 29.44921875 C35.92200696 32.24800698 37.46068063 35.09995632 39 38 C42.05446369 41.49081565 44.98697458 43.72233692 49 46 C49.66 46.66 50.32 47.32 51 48 C22.15075694 48.36364592 22.15075694 48.36364592 13 43 C12.22914063 42.56558594 11.45828125 42.13117187 10.6640625 41.68359375 C3.67537813 37.42305029 -1.47992316 31.90232238 -4 24 C-4.84964263 15.26646408 -4.62104592 7.61234797 0 0 Z " fill="#780E4C" transform="translate(454,656)"/>
<path d="M0 0 C0.66 0 1.32 0 2 0 C2.98163422 1.93625098 3.96022454 3.87404539 4.9375 5.8125 C5.48277344 6.89144531 6.02804687 7.97039063 6.58984375 9.08203125 C8 12 8 12 9 15 C10.76591887 16.00916033 10.76591887 16.00916033 13 17 C13.94875 17.66 14.8975 18.32 15.875 19 C18.89628671 20.93362349 21.56787452 22.01939272 25 23 C25 23.66 25 24.32 25 25 C24.3709375 25.1959375 23.741875 25.391875 23.09375 25.59375 C14.58738612 28.56585304 8.71989667 33.22122262 4.5625 41.3125 C3.56051309 43.52765491 2.77123346 45.68629963 2 48 C1.34 48 0.68 48 0 48 C-0.23074219 47.34773437 -0.46148438 46.69546875 -0.69921875 46.0234375 C-1.18841797 44.71246094 -1.18841797 44.71246094 -1.6875 43.375 C-2.00074219 42.51648438 -2.31398438 41.65796875 -2.63671875 40.7734375 C-5.87611329 34.18326522 -9.81173482 31.07076383 -16.3125 28.125 C-16.95767578 27.81820312 -17.60285156 27.51140625 -18.26757812 27.1953125 C-19.83888701 26.4503957 -21.41861711 25.72328473 -23 25 C-23 24.34 -23 23.68 -23 23 C-22.12988281 22.63648438 -22.12988281 22.63648438 -21.2421875 22.265625 C-12.28767662 18.42375565 -6.79751568 14.62658876 -2 6 C-0.63206325 2.66273623 -0.63206325 2.66273623 0 0 Z " fill="#F7F7F7" transform="translate(967,944)"/>
<path d="M0 0 C-0.42248599 5.06983185 -1.5975201 8.65581753 -4.0625 13.10546875 C-5.02744027 15.05545222 -5.54825229 16.8777269 -6 19 C-2.42152963 20.45232253 1.18060107 21.81226545 4.8125 23.125 C5.78832031 23.47820313 6.76414062 23.83140625 7.76953125 24.1953125 C8.50558594 24.46085938 9.24164062 24.72640625 10 25 C8.57133819 28.43020287 8.16797542 28.91601229 4.625 30.6875 C0.27308283 32.26319415 -3.12178331 33.13056201 -7.75 33.0625 C-9.85375 33.0315625 -9.85375 33.0315625 -12 33 C-12.66 36.63 -13.32 40.26 -14 44 C-19.47059581 45.84532714 -24.18819928 46.25309068 -29.9375 46.125 C-30.71673828 46.11597656 -31.49597656 46.10695313 -32.29882812 46.09765625 C-34.19935447 46.07433691 -36.09972008 46.03847586 -38 46 C-38 45.67 -38 45.34 -38 45 C-32.555 44.505 -32.555 44.505 -27 44 C-26.566875 42.8346875 -26.13375 41.669375 -25.6875 40.46875 C-10.46726714 0 -10.46726714 0 0 0 Z " fill="#C14116" transform="translate(518,627)"/>
<path d="M0 0 C8.25 0.33 16.5 0.66 25 1 C26.76992919 4.53985838 27.38954377 6.71150567 28.0625 10.5 C29.66472558 17.90396875 32.70796245 24.46173849 35.95141602 31.28320312 C36.53814087 32.52360352 36.53814087 32.52360352 37.13671875 33.7890625 C37.49467529 34.52850098 37.85263184 35.26793945 38.22143555 36.02978516 C39 38 39 38 39 41 C36.477279 38.6478496 33.95718302 36.29290413 31.4375 33.9375 C30.73302734 33.28072266 30.02855469 32.62394531 29.30273438 31.94726562 C27.19317041 29.97380256 25.09500775 27.98889988 23 26 C22.38229736 25.42306396 21.76459473 24.84612793 21.12817383 24.25170898 C15.99658729 19.32836075 12.20013542 13.77653773 8.27539062 7.87695312 C7.77845703 7.14798828 7.28152344 6.41902344 6.76953125 5.66796875 C6.33229736 5.01078857 5.89506348 4.3536084 5.44458008 3.67651367 C3.84336024 1.60029463 3.84336024 1.60029463 0 0 Z " fill="#C74321" transform="translate(480,703)"/>
<path d="M0 0 C2.34191563 2.1290142 3.83554954 4.04408729 5 7 C5 8.32 5 9.64 5 11 C4.34 11 3.68 11 3 11 C2.80019531 11.85980469 2.60039063 12.71960938 2.39453125 13.60546875 C0.61313312 17.94170117 -1.86276871 20.23798921 -5.3125 23.3125 C-5.88162109 23.84939453 -6.45074219 24.38628906 -7.03710938 24.93945312 C-10.23048226 27.84685232 -12.5181478 29.68887705 -17 30 C-17.72767003 28.76115681 -18.43154815 27.50831659 -19.125 26.25 C-19.51945313 25.55390625 -19.91390625 24.8578125 -20.3203125 24.140625 C-21 22 -21 22 -20.40625 20.03515625 C-15.3208716 12.67548362 -7.76782469 6.7782733 -1 1 C-0.67 0.67 -0.34 0.34 0 0 Z " fill="#62042D" transform="translate(562,582)"/>
<path d="M0 0 C3.16335426 2.87885559 5.03029414 5.55541412 6.8125 9.4375 C7.25207031 10.36433594 7.69164062 11.29117187 8.14453125 12.24609375 C9.13472511 15.43370414 8.89406079 16.81985212 8 20 C6.7565918 22.12475586 6.7565918 22.12475586 5.19921875 24.21484375 C4.63396484 24.98376953 4.06871094 25.75269531 3.48632812 26.54492188 C2.89271484 27.33447266 2.29910156 28.12402344 1.6875 28.9375 C0.52380553 30.5084231 -0.63897491 32.08002374 -1.80078125 33.65234375 C-2.62956787 34.76391846 -2.62956787 34.76391846 -3.47509766 35.89794922 C-4.8199792 37.75184452 -6.06838708 39.632169 -7.29296875 41.56640625 C-7.85628906 42.36949219 -8.41960937 43.17257812 -9 44 C-9.66 44 -10.32 44 -11 44 C-12.26305335 38.92523206 -13.27036084 34.27203646 -13 29 C-12.01 28.67 -11.02 28.34 -10 28 C-9.34 29.65 -8.68 31.3 -8 33 C-5.15611811 26.29656411 -3.95317076 19.74311729 -2.875 12.5625 C-2.54256467 10.39659499 -2.20681467 8.23119519 -1.8671875 6.06640625 C-1.72394043 5.11709229 -1.58069336 4.16777832 -1.43310547 3.18969727 C-1 1 -1 1 0 0 Z " fill="#193672" transform="translate(465,477)"/>
<path d="M0 0 C3.28339065 1.54632713 5.29429604 2.6833534 7 6 C5.66952997 11.05393823 2.2553308 14.93132063 -0.875 19 C-1.40480469 19.69867187 -1.93460938 20.39734375 -2.48046875 21.1171875 C-5.27010113 24.7859348 -8.10193364 28.41591793 -11 32 C-12.75 31.875 -12.75 31.875 -15 31 C-17.25 27.9375 -17.25 27.9375 -19 25 C-12.91763248 16.46028629 -6.51876953 8.20837708 0 0 Z " fill="#BF4316" transform="translate(517,521)"/>
<path d="M0 0 C0.33 0 0.66 0 1 0 C0.9278125 0.55042969 0.855625 1.10085938 0.78125 1.66796875 C0.24239211 6.49523734 -0.03096659 11.20014717 0.14453125 16.0546875 C0.7163586 33.1619835 0.7163586 33.1619835 -4.33203125 39.78125 C-7.32381803 43.760957 -9.04340428 48.44615333 -11 53 C-12 50 -12 50 -11 47 C-12.98 47.495 -12.98 47.495 -15 48 C-13.86463059 43.12032723 -12.71787466 38.24353645 -11.56005859 33.36914062 C-11.20287797 31.85820742 -10.84871772 30.34655481 -10.49853516 28.83398438 C-4.97255184 4.97255184 -4.97255184 4.97255184 0 0 Z " fill="#127575" transform="translate(482,572)"/>
<path d="M0 0 C2 0.6875 2 0.6875 4 2.6875 C3.81670144 5.66851338 3.41455462 7.22845659 1.3984375 9.4609375 C0.73070312 9.98945312 0.06296875 10.51796875 -0.625 11.0625 C-3.43363039 13.36547679 -6.04865223 15.69034586 -8.5625 18.3125 C-11.77324435 21.58982661 -15.19774993 24.12680097 -19 26.6875 C-20.65 24.7075 -22.3 22.7275 -24 20.6875 C-22.50228899 16.93067182 -20.38023683 15.1672895 -17.1875 12.75 C-14.31722453 10.53318782 -11.55863609 8.38395956 -9.0625 5.75 C-7 3.6875 -7 3.6875 -4 2.6875 C-4 2.0275 -4 1.3675 -4 0.6875 C-2 -0.3125 -2 -0.3125 0 0 Z " fill="#CA431A" transform="translate(537,543.3125)"/>
<path d="M0 0 C0.33 0 0.66 0 1 0 C0.48170138 5.99072434 -0.82111873 10.86352413 -3.1875 16.375 C-3.50428711 17.12104492 -3.82107422 17.86708984 -4.14746094 18.63574219 C-11.04277296 34.54959672 -22.32288622 47.3286351 -35 59 C-35.33 59 -35.66 59 -36 59 C-36.33 46.46 -36.66 33.92 -37 21 C-36.01 20.67 -35.02 20.34 -34 20 C-33.97074498 23.68748309 -33.95311582 27.37493592 -33.9375 31.0625 C-33.92912109 32.10083984 -33.92074219 33.13917969 -33.91210938 34.20898438 C-33.89503558 39.58723069 -34.04584848 44.70333211 -35 50 C-32.63460948 49.87943404 -32.63460948 49.87943404 -30 49 C-28.64172029 47.35360035 -27.30745749 45.68704193 -26 44 C-23.75 43.1875 -23.75 43.1875 -22 43 C-21.505 40.03 -21.505 40.03 -21 37 C-20.01 37 -19.02 37 -18 37 C-17.938125 36.443125 -17.87625 35.88625 -17.8125 35.3125 C-17 33 -17 33 -14.6875 30.8125 C-11.74746979 27.73572419 -10.4963141 25.08434222 -8.91015625 21.19921875 C-8 19 -8 19 -6.3125 15.875 C-4.80776084 12.94853022 -4.80776084 12.94853022 -4.5 9.25 C-4.335 8.1775 -4.17 7.105 -4 6 C-3.01 5.34 -2.02 4.68 -1 4 C-0.27617533 1.94074861 -0.27617533 1.94074861 0 0 Z " fill="#DD7834" transform="translate(581,475)"/>
<path d="M0 0 C0.33 0.66 0.66 1.32 1 2 C3.27306251 3.06005525 3.27306251 3.06005525 6 4 C6.95519531 4.35320313 7.91039062 4.70640625 8.89453125 5.0703125 C9.85746094 5.41835938 10.82039062 5.76640625 11.8125 6.125 C12.78832031 6.47820313 13.76414062 6.83140625 14.76953125 7.1953125 C15.50558594 7.46085938 16.24164062 7.72640625 17 8 C15.57133819 11.43020287 15.16797542 11.91601229 11.625 13.6875 C7.27308283 15.26319415 3.87821669 16.13056201 -0.75 16.0625 C-1.54921875 16.05347656 -2.3484375 16.04445313 -3.171875 16.03515625 C-3.77515625 16.02355469 -4.3784375 16.01195312 -5 16 C-4.35828555 13.51969902 -3.71184679 11.04080278 -3.0625 8.5625 C-2.78889648 7.50192383 -2.78889648 7.50192383 -2.50976562 6.41992188 C-1.11328125 1.11328125 -1.11328125 1.11328125 0 0 Z " fill="#1E7274" transform="translate(511,644)"/>
<path d="M0 0 C0.33 0 0.66 0 1 0 C1.18175781 0.79664063 1.36351562 1.59328125 1.55078125 2.4140625 C1.80214844 3.47367188 2.05351562 4.53328125 2.3125 5.625 C2.55613281 6.66914062 2.79976563 7.71328125 3.05078125 8.7890625 C3.87994259 12.07779505 3.87994259 12.07779505 5.78125 15 C7 18 7 18 5.98046875 21.2109375 C5.38878906 22.25507812 4.79710937 23.29921875 4.1875 24.375 C3.60355469 25.43460938 3.01960938 26.49421875 2.41796875 27.5859375 C1.95003906 28.38257813 1.48210937 29.17921875 1 30 C-2 29 -2 29 -3.1640625 26.890625 C-5.60520013 18.44930795 -4.98602584 9.19240289 -0.875 1.44140625 C-0.58625 0.96574219 -0.2975 0.49007812 0 0 Z " fill="#5E1343" transform="translate(454,656)"/>
<path d="M0 0 C1.52367187 0.39832031 1.52367187 0.39832031 3.078125 0.8046875 C4.0693335 1.05895508 4.0693335 1.05895508 5.08056641 1.31835938 C6.53729685 1.69213221 7.9926993 2.0711162 9.44677734 2.45507812 C13.88162881 3.59186894 18.04429671 4.18846602 22.625 4.5 C26.18680507 5.06950271 27.54738316 5.4777498 29.9296875 8.2265625 C34.23876038 16.18012487 36.10496547 25.21595761 38 34 C29.88861071 33.63379732 22.66964333 31.58459767 15 29 C18.43358947 28.07099852 21.42779828 27.76703032 25 28 C25.66 28.66 26.32 29.32 27 30 C29.60280568 29.67958603 29.60280568 29.67958603 32 29 C33.05404945 25.01803543 32.84098656 22.01804691 32 18 C31.34 18 30.68 18 30 18 C29.34 15.03 28.68 12.06 28 9 C26.42412109 8.96132813 26.42412109 8.96132813 24.81640625 8.921875 C15.20679005 8.57511857 8.14362668 7.42908445 0 2 C0 1.34 0 0.68 0 0 Z " fill="#EEA63D" transform="translate(613,350)"/>
<path d="M0 0 C8.25 0 16.5 0 25 0 C25 0.33 25 0.66 25 1 C17.08 1 9.16 1 1 1 C1.495 2.485 1.99 3.97 2.5 5.5 C4.16177409 12.08409071 4.30426534 18.47699297 4.3125 25.25 C4.31765625 26.27931641 4.3228125 27.30863281 4.328125 28.36914062 C4.18675883 43.9901024 -2.65416305 58.34606873 -13 70 C-13.66 70 -14.32 70 -15 70 C-15.495 67.03 -15.495 67.03 -16 64 C-15.195625 63.87625 -14.39125 63.7525 -13.5625 63.625 C-12.716875 63.41875 -11.87125 63.2125 -11 63 C-10.67 62.34 -10.34 61.68 -10 61 C-9.34 61 -8.68 61 -8 61 C-8 59.35 -8 57.7 -8 56 C-6.515 55.505 -6.515 55.505 -5 55 C-0.59430997 48.54041177 0.11152483 40.56372944 1 33 C1.33 33 1.66 33 2 33 C1.53110483 24.18970662 0.77059084 15.63083739 -0.6953125 6.92578125 C-1 4 -1 4 0 0 Z " fill="#DE8C4B" transform="translate(616,472)"/>
<path d="M0 0 C8.25 0.33 16.5 0.66 25 1 C25.33 3.64 25.66 6.28 26 9 C23.07928415 8.9939903 20.16922336 8.94663738 17.25 8.875 C16.425 8.87757813 15.6 8.88015625 14.75 8.8828125 C12.36030024 8.80572541 10.29821125 8.6670418 8 8 C5.671875 5.0703125 5.671875 5.0703125 4 2 C2.68 1.34 1.36 0.68 0 0 Z " fill="#AA2714" transform="translate(480,703)"/>
<path d="M0 0 C0.33 0.66 0.66 1.32 1 2 C0.28199219 2.69351563 -0.43601562 3.38703125 -1.17578125 4.1015625 C-4.07781817 7.00869966 -6.65898939 10.14185264 -9.1875 13.375 C-9.65583252 13.97135254 -10.12416504 14.56770508 -10.60668945 15.18212891 C-15.78268354 21.86760709 -20.41635222 28.9008145 -25 36 C-25.66 34.68 -26.32 33.36 -27 32 C-25.7260411 29.96166576 -24.38938077 27.96147874 -23 26 C-22.34 26 -21.68 26 -21 26 C-20.34 24.02 -19.68 22.04 -19 20 C-18.34 20 -17.68 20 -17 20 C-16.9175 19.278125 -16.835 18.55625 -16.75 17.8125 C-15.83168455 14.36881705 -14.43839995 12.57773709 -12 10 C-10.66666667 9.33333333 -9.33333333 8.66666667 -8 8 C-6.77472052 6.04978917 -6.77472052 6.04978917 -6 4 C-4.60804085 1.2160817 -2.84424221 1.02101003 0 0 Z " fill="#4EB6A2" transform="translate(518,519)"/>
<path d="M0 0 C0.66 0.66 1.32 1.32 2 2 C1.53851562 2.49886719 1.07703125 2.99773438 0.6015625 3.51171875 C-3.50490114 8.03207497 -7.29529247 12.6693258 -10.9375 17.5625 C-14.61681294 22.48251979 -18.51335923 26.59532296 -23.28515625 30.51171875 C-25.11221811 31.90579085 -25.11221811 31.90579085 -26 34 C-29.0625 34.625 -29.0625 34.625 -32 35 C-29.2046217 31.56029691 -26.48401416 28.40162877 -23.0625 25.5625 C-19.98646025 22.98867082 -17.52215839 20.29183251 -14.9296875 17.25 C-12.05921485 13.90305213 -9.0798799 10.65620898 -6.11328125 7.39453125 C-3.99127508 4.99011391 -1.98279012 2.51988903 0 0 Z " fill="#EEAF4E" transform="translate(576,512)"/>
<path d="M0 0 C0.99 0.33 1.98 0.66 3 1 C3.14411769 5.26833676 3.28646489 9.53672798 3.42724609 13.80517578 C3.47527445 15.25408481 3.5237676 16.70297851 3.57275391 18.15185547 C3.64350758 20.24703066 3.71253102 22.3422572 3.78125 24.4375 C3.82314453 25.69433594 3.86503906 26.95117188 3.90820312 28.24609375 C3.93849609 29.48488281 3.96878906 30.72367187 4 32 C4.0508374 32.68465332 4.1016748 33.36930664 4.15405273 34.07470703 C4.45013208 39.70746824 3.86012468 40.17484415 0 45 C0 30.15 0 15.3 0 0 Z " fill="#F9F0D5" transform="translate(650,394)"/>
<path d="M0 0 C0.33 0.66 0.66 1.32 1 2 C-0.02338172 4.17583862 -1.09642711 6.18390557 -2.3125 8.25 C-2.66699219 8.86246582 -3.02148438 9.47493164 -3.38671875 10.10595703 C-7.4859644 17.04463706 -12.20338414 23.5324319 -17 30 C-17 24 -17 24 -16 22 C-15.34 22 -14.68 22 -14 22 C-14 21.34 -14 20.68 -14 20 C-13.34 19.34 -12.68 18.68 -12 18 C-12.5775 18.28875 -13.155 18.5775 -13.75 18.875 C-15.83333333 19.91666667 -17.91666667 20.95833333 -20 22 C-16.18701093 17.42441311 -12.21148973 13.17746681 -7.96875 9 C-5.14452495 6.13094598 -2.57666774 3.09200129 0 0 Z " fill="#53D1AC" transform="translate(499,291)"/>
<path d="M0 0 C0.33 0 0.66 0 1 0 C1.34063763 10.53453398 0.97877647 19.80478292 -2 30 C-2.66 30 -3.32 30 -4 30 C-6.22174235 23.33477295 -5.73552874 15.43653821 -3 9 C-2.7525 7.9790625 -2.7525 7.9790625 -2.5 6.9375 C-1.87835053 4.52860829 -0.95580729 2.2939375 0 0 Z " fill="#920F59" transform="translate(573,620)"/>
<path d="M0 0 C3.73680173 3.52920163 6.06734837 6.60102255 9 11 C6.36 15.62 3.72 20.24 1 25 C0.34 24.67 -0.32 24.34 -1 24 C-0.67 23.67 -0.34 23.34 0 23 C0.08713831 21.29227642 0.10700007 19.58101351 0.09765625 17.87109375 C0.09443359 16.83662109 0.09121094 15.80214844 0.08789062 14.73632812 C0.07951172 13.64771484 0.07113281 12.55910156 0.0625 11.4375 C0.05798828 10.34501953 0.05347656 9.25253906 0.04882812 8.12695312 C0.03699826 5.41791505 0.02051543 2.70898401 0 0 Z " fill="#1D3170" transform="translate(439,522)"/>
<path d="M0 0 C0.99 0.33 1.98 0.66 3 1 C2.401875 1.763125 1.80375 2.52625 1.1875 3.3125 C-1.34017902 7.05951715 -2.20316515 11.04094254 -3.2734375 15.38671875 C-4 18 -4 18 -5.6875 21.3125 C-7.22856005 23.96952533 -7.22856005 23.96952533 -7 27.125 C-7 30.57072319 -7.79362696 31.45418495 -10 34 C-10.68805133 35.32242489 -11.35800958 36.65461138 -12 38 C-12.27372239 31.41762836 -11.57257698 26.31302063 -9.375 20.125 C-9.10864746 19.34850098 -8.84229492 18.57200195 -8.56787109 17.77197266 C-6.32866242 11.45837492 -3.5404517 5.69987614 0 0 Z " fill="#D56B34" transform="translate(487,609)"/>
<path d="M0 0 C4.42662182 4.42662182 5.72079966 12.83149922 6.2578125 18.92578125 C6.25134822 20.95233346 6.13943174 22.97823977 6 25 C4.68 25 3.36 25 2 25 C1.67 25.66 1.34 26.32 1 27 C0.67 19.74 0.34 12.48 0 5 C-0.99 5.33 -1.98 5.66 -3 6 C-2.67 4.68 -2.34 3.36 -2 2 C-1.34 2 -0.68 2 0 2 C0 1.34 0 0.68 0 0 Z " fill="#871954" transform="translate(567,591)"/>
<path d="M0 0 C3.96 0 7.92 0 12 0 C12 0.33 12 0.66 12 1 C9.69 1 7.38 1 5 1 C4.98018066 2.22106445 4.96036133 3.44212891 4.93994141 4.70019531 C4.86383877 9.23279354 4.77512839 13.7650727 4.68261719 18.29736328 C4.64434673 20.2585622 4.60949046 22.21983084 4.578125 24.18115234 C4.5324326 27.00122997 4.474445 29.82082838 4.4140625 32.640625 C4.40251129 33.51680481 4.39096008 34.39298462 4.37905884 35.29571533 C4.35918915 36.11626404 4.33931946 36.93681274 4.31884766 37.78222656 C4.30552399 38.50170471 4.29220032 39.22118286 4.2784729 39.96246338 C3.9587861 42.30155476 3.15410784 43.95527237 2 46 C1.34 46 0.68 46 0 46 C0.14147461 45.41879395 0.28294922 44.83758789 0.42871094 44.23876953 C1.96262519 37.39007155 2.30284964 30.87757721 2.25 23.875 C2.25773438 22.84246094 2.26546875 21.80992187 2.2734375 20.74609375 C2.25824014 14.78112981 1.6084974 9.73186773 0 4 C0 2.68 0 1.36 0 0 Z " fill="#FCF7E5" transform="translate(617,473)"/>
<path d="M0 0 C0.33 0 0.66 0 1 0 C0.38776182 11.42844601 -3.81718877 22.43289795 -8 33 C-9.23592782 28.70213748 -8.95982846 24.85817435 -8.6875 20.4375 C-8.65205078 19.66986328 -8.61660156 18.90222656 -8.58007812 18.11132812 C-8.35783572 14.30667086 -8.15283503 12.22925254 -6 9 C-5.67 10.98 -5.34 12.96 -5 15 C-4.34 15 -3.68 15 -3 15 C-3.03480469 14.41992188 -3.06960938 13.83984375 -3.10546875 13.2421875 C-3.28744524 7.990866 -2.83377711 4.60488781 0 0 Z " fill="#1C6598" transform="translate(456,390)"/>
<path d="M0 0 C6.44994917 6.2418863 12.4481036 12.94997282 18 20 C15 20 15 20 13 19 C12.67 20.32 12.34 21.64 12 23 C5.26171875 11.76953125 5.26171875 11.76953125 4.09130859 9.80712891 C3.15458004 8.25597348 2.18400742 6.72534492 1.20703125 5.19921875 C0 3 0 3 0 0 Z " fill="#BDD932" transform="translate(525,288)"/>
<path d="M0 0 C1.32 0.33 2.64 0.66 4 1 C4.32508108 18.26430572 4.3987619 34.98595977 1 52 C0.67 52 0.34 52 0 52 C-0.11547323 43.92970447 0.09958689 36.02332397 1 28 C1.66 28 2.32 28 3 28 C2.67 19.09 2.34 10.18 2 1 C1.34 0.67 0.68 0.34 0 0 Z " fill="#E29F44" transform="translate(647,394)"/>
<path d="M0 0 C2.83433303 2.83433303 4.05581357 6.31114844 5.625 9.9375 C5.94984375 10.66646484 6.2746875 11.39542969 6.609375 12.14648438 C9 17.62583705 9 17.62583705 9 21 C5.04 17.37 1.08 13.74 -3 10 C-2.67 9.01 -2.34 8.02 -2 7 C-1.34 7 -0.68 7 0 7 C-0.2784375 5.824375 -0.2784375 5.824375 -0.5625 4.625 C-1 2 -1 2 0 0 Z " fill="#C55435" transform="translate(510,723)"/>
<path d="M0 0 C4.81355932 4.81355932 4.81355932 4.81355932 6 8 C5.3203125 10.140625 5.3203125 10.140625 4.125 12.25 C3.73570312 12.95640625 3.34640625 13.6628125 2.9453125 14.390625 C2.63335937 14.92171875 2.32140625 15.4528125 2 16 C1.34 16 0.68 16 0 16 C-1.26305335 10.92523206 -2.27036084 6.27203646 -2 1 C-1.34 0.67 -0.68 0.34 0 0 Z " fill="#263764" transform="translate(454,505)"/>
<path d="M0 0 C0.33 0 0.66 0 1 0 C1.16748075 4.66287681 1.32805376 9.32592037 1.48217773 13.98925781 C1.53560756 15.57623729 1.59093771 17.16315395 1.64819336 18.75 C1.73007724 21.02850804 1.80516524 23.30715322 1.87890625 25.5859375 C1.90594131 26.29744965 1.93297638 27.00896179 1.96083069 27.74203491 C2.11387171 32.77225659 2.11387171 32.77225659 1 35 C0.86642547 38.67329964 0.8328432 41.49852959 2 45 C1.51171875 47.4453125 1.51171875 47.4453125 0.6875 50.125 C0.42324219 51.01445312 0.15898438 51.90390625 -0.11328125 52.8203125 C-1 55 -1 55 -3 56 C-2.86722656 54.80632812 -2.73445312 53.61265625 -2.59765625 52.3828125 C-0.78334992 34.94969516 -0.37939202 17.51063828 0 0 Z " fill="#EBAB4E" transform="translate(570,376)"/>
<path d="M0 0 C0.66 0 1.32 0 2 0 C2.7265625 2.19921875 2.7265625 2.19921875 3 5 C1.5234375 7.39453125 1.5234375 7.39453125 -0.625 9.8125 C-4.2285824 14.02932362 -7.17484296 18.23254749 -10 23 C-10.66 21.68 -11.32 20.36 -12 19 C-11.06692579 17.55962331 -10.12834923 16.12281015 -9.1875 14.6875 C-8.66542969 13.88699219 -8.14335938 13.08648438 -7.60546875 12.26171875 C-6.18455769 10.25999732 -4.87075471 8.58373481 -3 7 C-2.34 7 -1.68 7 -1 7 C-0.67 4.69 -0.34 2.38 0 0 Z " fill="#DC6F24" transform="translate(529,608)"/>
<path d="M0 0 C0.99 0.33 1.98 0.66 3 1 C2.34 1 1.68 1 1 1 C1.02320313 1.74121094 1.04640625 2.48242188 1.0703125 3.24609375 C1.23132059 12.6420657 0.24731636 21.70081109 -1 31 C-1.33 31 -1.66 31 -2 31 C-2.81826135 21.19345244 -3.09317357 11.82174407 -2 2 C-1.34 2 -0.68 2 0 2 C0 1.34 0 0.68 0 0 Z " fill="#E39B3D" transform="translate(595,403)"/>
<path d="M0 0 C0.66 0.33 1.32 0.66 2 1 C2.6328125 3.06640625 2.6328125 3.06640625 3.125 5.5625 C3.29257812 6.38878906 3.46015625 7.21507812 3.6328125 8.06640625 C3.75398437 8.70449219 3.87515625 9.34257812 4 10 C-4.11138929 9.63379732 -11.33035667 7.58459767 -19 5 C-15.56641053 4.07099852 -12.57220172 3.76703032 -9 4 C-8.34 4.66 -7.68 5.32 -7 6 C-4.44539786 6.07272562 -4.44539786 6.07272562 -2 5 C-0.62533375 2.52363988 -0.62533375 2.52363988 0 0 Z " fill="#E38F3F" transform="translate(647,374)"/>
<path d="M0 0 C0.66 0.66 1.32 1.32 2 2 C-0.2668555 3.81767674 -2.53815973 5.62923143 -4.8125 7.4375 C-5.77639648 8.2119043 -5.77639648 8.2119043 -6.75976562 9.00195312 C-7.38173828 9.49501953 -8.00371094 9.98808594 -8.64453125 10.49609375 C-9.21534424 10.95169678 -9.78615723 11.4072998 -10.37426758 11.87670898 C-12 13 -12 13 -15 14 C-15.33 13.01 -15.66 12.02 -16 11 C-14.8803014 9.99406757 -13.7540588 8.9954151 -12.625 8 C-11.99851562 7.443125 -11.37203125 6.88625 -10.7265625 6.3125 C-9 5 -9 5 -7 5 C-7 4.34 -7 3.68 -7 3 C-5.68 3 -4.36 3 -3 3 C-3 2.34 -3 1.68 -3 1 C-2.01 0.67 -1.02 0.34 0 0 Z " fill="#BC2B7F" transform="translate(549,679)"/>
<path d="M0 0 C0.66 0.33 1.32 0.66 2 1 C2 4 2 4 0.64453125 5.53515625 C0.03996094 6.03917969 -0.56460938 6.54320312 -1.1875 7.0625 C-1.77917969 7.56910156 -2.37085938 8.07570313 -2.98046875 8.59765625 C-5 10 -5 10 -7.40625 10.86328125 C-10.79590087 12.34880595 -12.75640888 14.46666523 -15.3125 17.125 C-16.19550781 18.03507813 -17.07851563 18.94515625 -17.98828125 19.8828125 C-18.65214844 20.58148437 -19.31601562 21.28015625 -20 22 C-20 19 -20 19 -17.875 16.546875 C-16.92490776 15.60618629 -15.96601482 14.67432997 -15 13.75 C-14.50322754 13.26418457 -14.00645508 12.77836914 -13.49462891 12.27783203 C-9.46182387 8.36436378 -5.28078215 4.63980942 -1 1 C-0.67 0.67 -0.34 0.34 0 0 Z " fill="#681121" transform="translate(562,582)"/>
<path d="M0 0 C1.32 0.66 2.64 1.32 4 2 C3.06409496 3.1055189 2.12620142 4.20935453 1.1875 5.3125 C0.66542969 5.92738281 0.14335938 6.54226563 -0.39453125 7.17578125 C-0.92433594 7.77777344 -1.45414063 8.37976563 -2 9 C-2.49886719 9.57105469 -2.99773438 10.14210938 -3.51171875 10.73046875 C-5 12 -5 12 -8 12 C-8.33 13.65 -8.66 15.3 -9 17 C-9.99 17 -10.98 17 -12 17 C-10.25477062 12.94785821 -7.5771843 9.69396039 -4.875 6.25 C-4.40707031 5.64800781 -3.93914063 5.04601562 -3.45703125 4.42578125 C-2.30774993 2.94813384 -1.15428765 1.47373995 0 0 Z " fill="#A5572D" transform="translate(517,521)"/>
<path d="M0 0 C0.33 0 0.66 0 1 0 C1.2144997 8.27015524 1.07422976 15.96235969 -1 24 C-3.49118953 20.2632157 -3.2065226 18.25548181 -3.125 13.8125 C-3.10695313 12.54019531 -3.08890625 11.26789063 -3.0703125 9.95703125 C-3.04710937 8.98121094 -3.02390625 8.00539063 -3 7 C-2.34 7 -1.68 7 -1 7 C-1.020625 6.030625 -1.04125 5.06125 -1.0625 4.0625 C-1 1 -1 1 0 0 Z " fill="#2576A1" transform="translate(459,366)"/>
<path d="M0 0 C0 0.99 0 1.98 0 3 C-1.0725 3.12375 -2.145 3.2475 -3.25 3.375 C-6.80087937 3.77790392 -6.80087937 3.77790392 -9 5 C-11.89235972 6.44617986 -14.81402884 6.63238794 -18 7 C-18 6.01 -18 5.02 -18 4 C-16.68 3.67 -15.36 3.34 -14 3 C-14 2.34 -14 1.68 -14 1 C-9.23692563 0.04738513 -4.8333472 -0.08333357 0 0 Z " fill="#BEC3C5" transform="translate(530,765)"/>
<path d="M0 0 C0.66 0.66 1.32 1.32 2 2 C1.48050781 2.56847656 0.96101562 3.13695312 0.42578125 3.72265625 C-2.80758804 7.30267142 -5.97628782 10.81519998 -8.6875 14.8125 C-10.90863027 17.87405794 -12.80681236 19.98324991 -16 22 C-16.99 21.67 -17.98 21.34 -19 21 C-18.27941406 20.2884375 -17.55882812 19.576875 -16.81640625 18.84375 C-14.10846984 16.13485976 -11.51364363 13.3349525 -8.9375 10.5 C-8.10089844 9.5821875 -7.26429688 8.664375 -6.40234375 7.71875 C-4.181488 5.20539129 -2.06966571 2.63846529 0 0 Z " fill="#EEBF6A" transform="translate(576,512)"/>
<path d="M0 0 C1.1015625 1.7890625 1.1015625 1.7890625 2 4 C1.11834143 5.83113703 0.21812999 7.65565859 -0.7734375 9.4296875 C-3.26650442 14.65401244 -4.52641215 20.41917793 -6 26 C-6.33 26 -6.66 26 -7 26 C-6.76416302 23.83230688 -6.52332251 21.66568539 -6.26953125 19.5 C-6.10593829 17.982616 -5.97041673 16.46138041 -5.88671875 14.9375 C-5.47590207 9.11564081 -3.06956892 4.89318736 0 0 Z " fill="#B04522" transform="translate(512,636)"/>
<path d="M0 0 C0.33 0.66 0.66 1.32 1 2 C3.29122503 2.59447891 3.29122503 2.59447891 6 3 C7.90134721 3.41287899 9.79738276 3.85092976 11.6875 4.3125 C12.64011719 4.53550781 13.59273437 4.75851562 14.57421875 4.98828125 C17 6 17 6 18.33203125 8.10546875 C18.55246094 8.73066406 18.77289062 9.35585938 19 10 C10.80577287 8.24102978 3.50332803 5.73689368 -4 2 C-2.68 1.34 -1.36 0.68 0 0 Z " fill="#F4ECC2" transform="translate(598,341)"/>
<path d="M0 0 C1.90491009 6.48773726 -1.82092323 11.92393879 -4.5859375 17.73046875 C-6.10805811 20.17343028 -7.60740775 21.4371791 -10 23 C-8.41980408 17.7936703 -6.22115005 13.01626689 -3.875 8.125 C-3.50246094 7.34125 -3.12992188 6.5575 -2.74609375 5.75 C-1.83381003 3.83186501 -0.91733016 1.91572671 0 0 Z " fill="#E18A45" transform="translate(557,470)"/>
<path d="M0 0 C0.99 0.495 0.99 0.495 2 1 C1.98839844 1.72445312 1.97679687 2.44890625 1.96484375 3.1953125 C1.8181152 10.66148711 1.8181152 10.66148711 3 18 C3.66 18.33 4.32 18.66 5 19 C5 20.98 5 22.96 5 25 C3.68 24.67 2.36 24.34 1 24 C-0.06309567 18.82682579 -0.11693938 13.87630664 -0.0625 8.625 C-0.05798828 7.79355469 -0.05347656 6.96210937 -0.04882812 6.10546875 C-0.03713164 4.07028103 -0.01919935 2.03513077 0 0 Z " fill="#D06030" transform="translate(474,648)"/>
<path d="M0 0 C0.61328125 1.78125 0.61328125 1.78125 1 4 C-2.86209767 11.45784378 -8.55705852 17.65870896 -14 24 C-14.66 23.67 -15.32 23.34 -16 23 C-15.5153125 22.42894531 -15.030625 21.85789062 -14.53125 21.26953125 C-8.9621032 14.53300561 -4.42826303 7.51391439 0 0 Z " fill="#57CFC2" transform="translate(500,308)"/>
<path d="M0 0 C-1.44369043 2.88738087 -3.25669538 3.04452908 -6.25 4.125 C-7.20390625 4.47820312 -8.1578125 4.83140625 -9.140625 5.1953125 C-11.9218023 5.97799354 -14.13074276 6.15707613 -17 6 C-16.34 4.35 -15.68 2.7 -15 1 C-9.9752761 0.37470103 -5.07471573 -0.13012092 0 0 Z " fill="#1E85BA" transform="translate(403,375)"/>
<path d="M0 0 C0.33 0.66 0.66 1.32 1 2 C0.278125 2.70125 -0.44375 3.4025 -1.1875 4.125 C-3.99823813 6.92770745 -6.49516226 9.92262792 -9 13 C-9.66 12.67 -10.32 12.34 -11 12 C-11.99 12.99 -12.98 13.98 -14 15 C-12.50592885 10.2687747 -12.50592885 10.2687747 -10 8.9375 C-9.34 8.628125 -8.68 8.31875 -8 8 C-6.77472052 6.04978917 -6.77472052 6.04978917 -6 4 C-4.60804085 1.2160817 -2.84424221 1.02101003 0 0 Z " fill="#59BFAC" transform="translate(518,519)"/>
<path d="M0 0 C1 2 1 2 0.3125 4.25 C-1.19125503 7.40072481 -2.9947587 10.14405027 -5 13 C-5.515625 13.78375 -6.03125 14.5675 -6.5625 15.375 C-7.2740625 16.179375 -7.2740625 16.179375 -8 17 C-8.99 17 -9.98 17 -11 17 C-9.52869627 12.6426774 -7.16919385 9.28065866 -4.375 5.6875 C-3.95476562 5.13771484 -3.53453125 4.58792969 -3.1015625 4.02148438 C-2.07279961 2.67707832 -1.0370991 1.33798587 0 0 Z " fill="#DE8946" transform="translate(499,592)"/>
<path d="M0 0 C4.66666667 7 4.66666667 7 6 11 C6.66 11.66 7.32 12.32 8 13 C6.625 15 6.625 15 5 17 C4.34 17 3.68 17 3 17 C2.49255577 15.10614563 1.99435426 13.20981334 1.5 11.3125 C1.2215625 10.25675781 0.943125 9.20101563 0.65625 8.11328125 C0.0608285 5.28857328 -0.12786492 2.87163292 0 0 Z " fill="#228A8A" transform="translate(477,468)"/>
<path d="M0 0 C0.9796875 -0.01417969 1.959375 -0.02835938 2.96875 -0.04296875 C5.5 0.1875 5.5 0.1875 7.5 2.1875 C5.19 2.5175 2.88 2.8475 0.5 3.1875 C0.5 3.8475 0.5 4.5075 0.5 5.1875 C-2.375 5.3125 -2.375 5.3125 -5.5 5.1875 C-6.16 4.5275 -6.82 3.8675 -7.5 3.1875 C-7.5 2.5275 -7.5 1.8675 -7.5 1.1875 C-4.89820337 -0.11339831 -2.9030812 0.01909922 0 0 Z " fill="#9A1963" transform="translate(514.5,695.8125)"/>
<path d="M0 0 C0.66 1.32 1.32 2.64 2 4 C1.23883449 5.15227823 0.46567307 6.2966386 -0.3125 7.4375 C-0.74175781 8.07558594 -1.17101562 8.71367188 -1.61328125 9.37109375 C-3 11 -3 11 -6 12 C-6 11.34 -6 10.68 -6 10 C-6.99 9.67 -7.98 9.34 -9 9 C-8.51789062 8.60167969 -8.03578125 8.20335937 -7.5390625 7.79296875 C-6.90742187 7.26316406 -6.27578125 6.73335937 -5.625 6.1875 C-4.99851562 5.66542969 -4.37203125 5.14335938 -3.7265625 4.60546875 C-1.7778952 2.91774261 -1.7778952 2.91774261 0 0 Z " fill="#B22677" transform="translate(531,661)"/>
<path d="M0 0 C0.66 0.33 1.32 0.66 2 1 C1.58955515 7.57791873 1.13391403 13.74051886 -1 20 C-1.33 20 -1.66 20 -2 20 C-2.05425226 17.60385874 -2.09379027 15.20896147 -2.125 12.8125 C-2.14175781 12.13896484 -2.15851562 11.46542969 -2.17578125 10.77148438 C-2.21538674 6.71192193 -1.80020002 3.65001185 0 0 Z " fill="#9F216B" transform="translate(572,630)"/>
<path d="M0 0 C0 0.66 0 1.32 0 2 C-0.70125 2.185625 -1.4025 2.37125 -2.125 2.5625 C-5.55766099 4.2788305 -7.1720593 6.33576728 -9.47265625 9.34375 C-11.17161401 11.18609806 -12.77776303 11.89111717 -15 13 C-15.66 13.99 -16.32 14.98 -17 16 C-17 12 -17 12 -15.5390625 10.11328125 C-14.90742187 9.51902344 -14.27578125 8.92476562 -13.625 8.3125 C-12.99851562 7.71050781 -12.37203125 7.10851562 -11.7265625 6.48828125 C-10 5 -10 5 -8 4 C-7.34 3.01 -6.68 2.02 -6 1 C-3.88864324 0.27422112 -2.22998296 0 0 0 Z " fill="#EE9937" transform="translate(548,546)"/>
<path d="M0 0 C0.99 0.33 1.98 0.66 3 1 C1.92173635 2.27513763 0.83714481 3.54492569 -0.25 4.8125 C-0.85328125 5.52019531 -1.4565625 6.22789062 -2.078125 6.95703125 C-4 9 -4 9 -8 12 C-7.01 8.37 -6.02 4.74 -5 1 C-4.01 1.33 -3.02 1.66 -2 2 C-1.34 1.34 -0.68 0.68 0 0 Z " fill="#D1672B" transform="translate(596,545)"/>
<path d="M0 0 C0.33 0 0.66 0 1 0 C2.95744681 18.53191489 2.95744681 18.53191489 -2 26 C-3.05284747 22.70354467 -2.93680928 20.20524788 -2.44140625 16.796875 C-2.30283203 15.8171875 -2.16425781 14.8375 -2.02148438 13.828125 C-1.87001953 12.81234375 -1.71855469 11.7965625 -1.5625 10.75 C-1.41490234 9.71875 -1.26730469 8.6875 -1.11523438 7.625 C-0.75030495 5.08226597 -0.37832478 2.54076963 0 0 Z " fill="#F5E6C5" transform="translate(595,417)"/>
<path d="M0 0 C0.66 0.33 1.32 0.66 2 1 C0.730624 2.91763215 -0.54055945 4.83406793 -1.8125 6.75 C-2.87404297 8.35101562 -2.87404297 8.35101562 -3.95703125 9.984375 C-7.5510083 15.28944247 -7.5510083 15.28944247 -9 17 C-9.66 17 -10.32 17 -11 17 C-11.33 15.02 -11.66 13.04 -12 11 C-11.195625 10.87625 -10.39125 10.7525 -9.5625 10.625 C-8.716875 10.41875 -7.87125 10.2125 -7 10 C-6.67 9.34 -6.34 8.68 -6 8 C-5.34 8 -4.68 8 -4 8 C-4 6.35 -4 4.7 -4 3 C-3.01 2.67 -2.02 2.34 -1 2 C-0.67 1.34 -0.34 0.68 0 0 Z " fill="#DD7C43" transform="translate(612,525)"/>
<path d="M0 0 C0.99 0.33 1.98 0.66 3 1 C-1.29 5.29 -5.58 9.58 -10 14 C-10.33 12.68 -10.66 11.36 -11 10 C-8.9375 7.5625 -8.9375 7.5625 -6 5 C-5.48308594 4.51660156 -4.96617187 4.03320312 -4.43359375 3.53515625 C-2.875 2.125 -2.875 2.125 0 0 Z " fill="#D67B45" transform="translate(556,520)"/>
<path d="M0 0 C2 2 2 2 2.25 5.25 C2.10998984 11.55045713 0.9774414 17.7862654 0 24 C-0.33 24 -0.66 24 -1 24 C-1.02901394 20.5625177 -1.04680335 17.12506688 -1.0625 13.6875 C-1.07087891 12.71103516 -1.07925781 11.73457031 -1.08789062 10.72851562 C-1.09111328 9.79072266 -1.09433594 8.85292969 -1.09765625 7.88671875 C-1.10551147 6.59060669 -1.10551147 6.59060669 -1.11352539 5.26831055 C-1 3 -1 3 0 0 Z " fill="#F3E3C6" transform="translate(622,416)"/>
<path d="M0 0 C0.66 3.96 1.32 7.92 2 12 C-3.80205656 6.35475578 -3.80205656 6.35475578 -6 3 C-6 2.34 -6 1.68 -6 1 C-4 0 -4 0 0 0 Z " fill="#1E2D6D" transform="translate(424,536)"/>
<path d="M0 0 C4.44607497 1.77842999 5.9797308 2.64414533 9 6 C8.071875 6.268125 7.14375 6.53625 6.1875 6.8125 C2.73825541 7.84598483 2.73825541 7.84598483 0 11 C0 7.37 0 3.74 0 0 Z " fill="#EBAB35" transform="translate(569,358)"/>
<path d="M0 0 C2.584859 0.6191639 5.16776172 1.24507682 7.75 1.875 C8.47960937 2.04902344 9.20921875 2.22304688 9.9609375 2.40234375 C13.53285028 3.27908598 16.79373841 4.12686823 20 6 C12.94933853 6.34994092 7.38313422 6.19156711 1 3 C0.67 2.01 0.34 1.02 0 0 Z " fill="#EBB445" transform="translate(613,350)"/>
<path d="M0 0 C5.28 0 10.56 0 16 0 C16 0.33 16 0.66 16 1 C12.7 1 9.4 1 6 1 C6.309375 2.175625 6.309375 2.175625 6.625 3.375 C6.74875 4.24125 6.8725 5.1075 7 6 C6.34 6.66 5.68 7.32 5 8 C4.16382818 6.8562364 3.33113541 5.70992861 2.5 4.5625 C2.0359375 3.92441406 1.571875 3.28632812 1.09375 2.62890625 C0 1 0 1 0 0 Z " fill="#BB3B1D" transform="translate(489,711)"/>
<path d="M0 0 C0.66 0.33 1.32 0.66 2 1 C1.3503125 1.70576172 1.3503125 1.70576172 0.6875 2.42578125 C0.130625 3.04839844 -0.42625 3.67101562 -1 4.3125 C-1.556875 4.92738281 -2.11375 5.54226563 -2.6875 6.17578125 C-4.29201498 8.03131335 -4.29201498 8.03131335 -4 11 C-6.70794407 14.08404742 -9.17647894 16.4422692 -13 18 C-9.56063777 11.27081302 -4.86702853 5.75099739 0 0 Z " fill="#4EC0B9" transform="translate(480,501)"/>
<path d="M0 0 C0.33 0.66 0.66 1.32 1 2 C-0.21484375 4.6015625 -0.21484375 4.6015625 -1.9375 7.625 C-2.50339844 8.62789063 -3.06929688 9.63078125 -3.65234375 10.6640625 C-4.09707031 11.43492187 -4.54179687 12.20578125 -5 13 C-5.33 12.34 -5.66 11.68 -6 11 C-7.65 11.66 -9.3 12.32 -11 13 C-7.61227103 8.30840284 -4.21814817 3.9700218 0 0 Z " fill="#76D7B3" transform="translate(499,291)"/>
<path d="M0 0 C0.66 0 1.32 0 2 0 C2 2.97 2 5.94 2 9 C2.66 9.33 3.32 9.66 4 10 C4.33 9.01 4.66 8.02 5 7 C5.33 7.66 5.66 8.32 6 9 C5.19152271 10.16945792 4.37810888 11.33550461 3.5625 12.5 C3.11003906 13.1496875 2.65757812 13.799375 2.19140625 14.46875 C1.79824219 14.9740625 1.40507813 15.479375 1 16 C0.67 16 0.34 16 0 16 C0 10.72 0 5.44 0 0 Z " fill="#1C918D" transform="translate(521,499)"/>
<path d="M0 0 C0.33 0 0.66 0 1 0 C0.46048934 6.68993219 -0.88706171 12.63460728 -3 19 C-3.99 18.67 -4.98 18.34 -6 18 C-5.505 16.515 -5.505 16.515 -5 15 C-4.34 15 -3.68 15 -3 15 C-3.05220703 14.12988281 -3.05220703 14.12988281 -3.10546875 13.2421875 C-3.28744524 7.990866 -2.83377711 4.60488781 0 0 Z " fill="#3175A1" transform="translate(456,390)"/>
<path d="M0 0 C0 0.66 0 1.32 0 2 C-1.98 2.33 -3.96 2.66 -6 3 C-6 3.66 -6 4.32 -6 5 C-10.455 5.495 -10.455 5.495 -15 6 C-15 5.34 -15 4.68 -15 4 C-15.66 3.67 -16.32 3.34 -17 3 C-14.54212344 2.49766027 -12.08374976 1.99803143 -9.625 1.5 C-8.57699219 1.28537109 -8.57699219 1.28537109 -7.5078125 1.06640625 C-2.2265625 0 -2.2265625 0 0 0 Z " fill="#3FAED6" transform="translate(408,352)"/>
<path d="M0 0 C0.66 0.33 1.32 0.66 2 1 C1.67 1.99 1.34 2.98 1 4 C-0.33076989 4.34342449 -1.66431979 4.67619874 -3 5 C-3.99 6.485 -3.99 6.485 -5 8 C-8 8.8125 -8 8.8125 -11 9 C-11.66 8.34 -12.32 7.68 -13 7 C-10.88002166 5.80266012 -8.75486324 4.61701287 -6.625 3.4375 C-6.02171875 3.09525391 -5.4184375 2.75300781 -4.796875 2.40039062 C-3.23021759 1.53872905 -1.61709138 0.76281817 0 0 Z " fill="#3ECBC2" transform="translate(450,333)"/>
<path d="M0 0 C0.33 0 0.66 0 1 0 C1.05811773 3.74993479 1.09363593 7.49975352 1.125 11.25 C1.14175781 12.31347656 1.15851562 13.37695312 1.17578125 14.47265625 C1.18222656 15.49746094 1.18867187 16.52226562 1.1953125 17.578125 C1.20578613 18.52075195 1.21625977 19.46337891 1.22705078 20.43457031 C0.99119213 23.09951941 0.35661659 24.71863092 -1 27 C-1.66 27 -2.32 27 -3 27 C-2.86722656 26.47535156 -2.73445312 25.95070313 -2.59765625 25.41015625 C-0.68304094 17.0110044 -0.37806468 8.57609879 0 0 Z " fill="#F7E4C9" transform="translate(620,492)"/>
<path d="M0 0 C0.66 0 1.32 0 2 0 C1.67 2.31 1.34 4.62 1 7 C1.99 7.33 2.98 7.66 4 8 C2.02 10.97 2.02 10.97 0 14 C-0.99 13.67 -1.98 13.34 -3 13 C-2.45144652 8.428721 -1.58255197 4.32564205 0 0 Z " fill="#932666" transform="translate(544,637)"/>
<path d="M0 0 C0.33 1.32 0.66 2.64 1 4 C1.66 4 2.32 4 3 4 C3.02712066 5.43739513 3.04645067 6.87493863 3.0625 8.3125 C3.07410156 9.11300781 3.08570313 9.91351563 3.09765625 10.73828125 C3 13 3 13 2 16 C1.34 16 0.68 16 0 16 C0 10.72 0 5.44 0 0 Z " fill="#13447D" transform="translate(400,424)"/>
<path d="M0 0 C2.62386487 3.06117568 3 3.73173127 3 8 C1.1875 10.0625 1.1875 10.0625 -1 12 C-2.00478461 12.99519239 -3.00571415 13.99431832 -4 15 C-3.52229477 13.06213915 -3.04278429 11.12472326 -2.5625 9.1875 C-2.29566406 8.10855469 -2.02882813 7.02960938 -1.75390625 5.91796875 C-1.23922588 3.9259157 -0.65062825 1.95188476 0 0 Z " fill="#2E719E" transform="translate(429,395)"/>
<path d="M0 0 C0.33 0 0.66 0 1 0 C0.67 3.63 0.34 7.26 0 11 C-1.65 11.33 -3.3 11.66 -5 12 C-4.37343743 7.73937456 -3.1323664 3.1323664 0 0 Z " fill="#168180" transform="translate(482,572)"/>
<path d="M0 0 C-4.05808065 2.7053871 -8.04889399 5 -13 5 C-12 2 -12 2 -8.75 0.25 C-5.07918075 -0.97360642 -3.58391038 -1.19463679 0 0 Z " fill="#D7F0F5" transform="translate(420,347)"/>
<path d="M0 0 C0.33 0 0.66 0 1 0 C0.51358785 6.84817102 -0.35993952 13.33042073 -2 20 C-2.33 20 -2.66 20 -3 20 C-2.88641524 17.04081802 -2.75966914 14.08323217 -2.625 11.125 C-2.5940625 10.28324219 -2.563125 9.44148438 -2.53125 8.57421875 C-2.49257813 7.76855469 -2.45390625 6.96289062 -2.4140625 6.1328125 C-2.3826416 5.38918457 -2.3512207 4.64555664 -2.31884766 3.87939453 C-2 2 -2 2 0 0 Z " fill="#F5F0DE" transform="translate(566,428)"/>
<path d="M0 0 C0.33 0 0.66 0 1 0 C1.33 5.94 1.66 11.88 2 18 C1.34 18 0.68 18 0 18 C-0.33 19.32 -0.66 20.64 -1 22 C-1.11459026 14.58982977 -0.91160286 7.35793733 0 0 Z " fill="#169894" transform="translate(497,431)"/>
<path d="M0 0 C-2.12114959 1.50571746 -4.24653615 3.00468679 -6.375 4.5 C-6.97828125 4.92925781 -7.5815625 5.35851562 -8.203125 5.80078125 C-12.7734375 9 -12.7734375 9 -15 9 C-14.67 8.01 -14.34 7.02 -14 6 C-13.01 6 -12.02 6 -11 6 C-10.79375 5.401875 -10.5875 4.80375 -10.375 4.1875 C-7.87547297 0.21097972 -4.45227473 -1.48409158 0 0 Z " fill="#3FBFC3" transform="translate(451,351)"/>
<path d="M0 0 C-1.93370231 1.00732399 -3.87210306 2.00563288 -5.8125 3 C-7.43091797 3.8353125 -7.43091797 3.8353125 -9.08203125 4.6875 C-12 6 -12 6 -15 6 C-15 5.34 -15 4.68 -15 4 C-4.55325875 -1.34484436 -4.55325875 -1.34484436 0 0 Z " fill="#E6F5F8" transform="translate(440,339)"/>
<path d="M0 0 C0.33 0 0.66 0 1 0 C1.36539443 4.28577219 0.48423598 6.34492062 -2 9.8125 C-2.556875 10.60269531 -3.11375 11.39289062 -3.6875 12.20703125 C-4.120625 12.79871094 -4.55375 13.39039063 -5 14 C-5.66 12.68 -6.32 11.36 -7 10 C-5.7260411 7.96166576 -4.38938077 5.96147874 -3 4 C-2.34 4 -1.68 4 -1 4 C-0.67 2.68 -0.34 1.36 0 0 Z " fill="#41BBAA" transform="translate(498,541)"/>
<path d="M0 0 C0.66 0 1.32 0 2 0 C3.05404945 3.98196457 2.84098656 6.98195309 2 11 C-0.89932357 8.60490662 -1.50168276 6.68754757 -2 3 C-1.34 3 -0.68 3 0 3 C0 2.01 0 1.02 0 0 Z " fill="#152665" transform="translate(406,511)"/>
<path d="M0 0 C2.97 0.99 5.94 1.98 9 3 C8.67 4.98 8.34 6.96 8 9 C6.84775972 8.07038578 5.70340824 7.1309875 4.5625 6.1875 C3.60537109 5.40439453 3.60537109 5.40439453 2.62890625 4.60546875 C1 3 1 3 0 0 Z " fill="#173D78" transform="translate(433,477)"/>
<path d="M0 0 C1.76462683 3.08809695 2 4.23312136 2 8 C1.01 8.66 0.02 9.32 -1 10 C-2.68615782 11.64694485 -4.35570171 13.31126121 -6 15 C-4.7677465 10.92408457 -3.19619973 7.6285039 -1 4 C-0.30420546 1.80869466 -0.30420546 1.80869466 0 0 Z " fill="#82E1D8" transform="translate(512,451)"/>
<path d="M0 0 C1.92236145 6.3885997 0.34703171 12.89771756 -2 19 C-2.33 19 -2.66 19 -3 19 C-3.33693273 12.03672362 -2.3030887 6.56654456 0 0 Z " fill="#D27244" transform="translate(478,628)"/>
<path d="M0 0 C3.29465344 4.39287125 3.34850026 4.99200925 2.8125 10.125 C2.71582031 11.17945313 2.61914062 12.23390625 2.51953125 13.3203125 C2 16 2 16 0 18 C0 12.06 0 6.12 0 0 Z " fill="#800945" transform="translate(568,600)"/>
<path d="M0 0 C-0.33 1.32 -0.66 2.64 -1 4 C-1.66 4 -2.32 4 -3 4 C-3.28875 4.598125 -3.5775 5.19625 -3.875 5.8125 C-5 8 -5 8 -7 11 C-7.43695709 5.66912345 -7.43695709 5.66912345 -7 3 C-4.59140121 0.97170628 -3.16955691 0 0 0 Z " fill="#2E799F" transform="translate(440,369)"/>
<path d="M0 0 C1.65 0 3.3 0 5 0 C4.67 2.31 4.34 4.62 4 7 C1.525 6.01 1.525 6.01 -1 5 C-1 2 -1 2 0 0 Z " fill="#1D7F82" transform="translate(464,630)"/>
<path d="M0 0 C2.64 0 5.28 0 8 0 C8 1.65 8 3.3 8 5 C5.36 4.67 2.72 4.34 0 4 C0 2.68 0 1.36 0 0 Z " fill="#29558F" transform="translate(411,466)"/>
<path d="M0 0 C0.66 0 1.32 0 2 0 C1.9375 1.75 1.9375 1.75 1 4 C-1.70049044 6.00840495 -4.55126733 8 -8 8 C-7.875 6.1875 -7.875 6.1875 -7 4 C-4 2.3125 -4 2.3125 -1 1 C-0.67 0.67 -0.34 0.34 0 0 Z " fill="#E4F6F6" transform="translate(449,330)"/>
<path d="M0 0 C4.97166604 0.473492 8.10996636 1.85092515 12 5 C12 5.99 12 6.98 12 8 C7.44328408 6.48109469 3.68276708 4.04597738 0 1 C0 0.67 0 0.34 0 0 Z " fill="#F0F1CE" transform="translate(560,322)"/>
<path d="M0 0 C0.33 0 0.66 0 1 0 C1 4.62 1 9.24 1 14 C0.01 13.67 -0.98 13.34 -2 13 C-2.05416188 11.39620659 -2.09286638 9.79188594 -2.125 8.1875 C-2.14820313 7.29417969 -2.17140625 6.40085937 -2.1953125 5.48046875 C-2 3 -2 3 0 0 Z " fill="#F2F9F8" transform="translate(438,576)"/>
<path d="M0 0 C0.33 0.66 0.66 1.32 1 2 C1.66 2 2.32 2 3 2 C3.05447047 3.41623216 3.09300508 4.83308191 3.125 6.25 C3.14820313 7.03890625 3.17140625 7.8278125 3.1953125 8.640625 C2.9828378 11.20731941 2.28654105 12.7916067 1 15 C-0.03590199 9.94997778 -0.10251672 5.12583611 0 0 Z " fill="#D9E6E8" transform="translate(402,415)"/>
<path d="M0 0 C2.1926135 4.2186994 4.36894477 8.60185899 3.625 13.4375 C3.41875 13.953125 3.2125 14.46875 3 15 C1.51171875 13.88671875 1.51171875 13.88671875 0 12 C-0.29296875 9.08203125 -0.29296875 9.08203125 -0.1875 5.8125 C-0.16042969 4.72582031 -0.13335938 3.63914062 -0.10546875 2.51953125 C-0.07066406 1.68808594 -0.03585937 0.85664063 0 0 Z " fill="#49C5BD" transform="translate(522,391)"/>
<path d="M0 0 C0 3 0 3 -1 6 C-3.31 6.33 -5.62 6.66 -8 7 C-4.55384615 1.21538462 -4.55384615 1.21538462 -1.75 0.125 C-1.1725 0.08375 -0.595 0.0425 0 0 Z " fill="#23A4BF" transform="translate(428,360)"/>
<path d="M0 0 C0.33 0.99 0.66 1.98 1 3 C-0.21484375 5.26171875 -0.21484375 5.26171875 -1.9375 7.6875 C-2.78634766 8.89986328 -2.78634766 8.89986328 -3.65234375 10.13671875 C-4.09707031 10.75160156 -4.54179688 11.36648438 -5 12 C-5.66 10.68 -6.32 9.36 -7 8 C-5.38405168 5.95880212 -3.7143618 3.95927063 -2 2 C-1.34 2 -0.68 2 0 2 C0 1.34 0 0.68 0 0 Z " fill="#CE6331" transform="translate(524,619)"/>
<path d="M0 0 C5.33333333 2.66666667 10.66666667 5.33333333 16 8 C15.34 8.66 14.68 9.32 14 10 C10.14914862 8.88753182 7.60851954 8.06217512 5 5 C4.113125 4.113125 3.22625 3.22625 2.3125 2.3125 C1.549375 1.549375 0.78625 0.78625 0 0 Z " fill="#ECB54F" transform="translate(594,373)"/>
<path d="M0 0 C2.00809017 0.01068133 4.01421852 0.16016904 6.015625 0.32421875 C5.685625 1.31421875 5.355625 2.30421875 5.015625 3.32421875 C3.365625 3.65421875 1.715625 3.98421875 0.015625 4.32421875 C-0.314375 3.66421875 -0.644375 3.00421875 -0.984375 2.32421875 C-2.469375 4.79921875 -2.469375 4.79921875 -3.984375 7.32421875 C-4.314375 6.66421875 -4.644375 6.00421875 -4.984375 5.32421875 C-3.93653829 2.39027595 -3.25458095 0.5317524 0 0 Z " fill="#2E9BCE" transform="translate(386.984375,355.67578125)"/>
<path d="M0 0 C0.33 0 0.66 0 1 0 C1.25 7.625 1.25 7.625 -1 11 C-1.99 11.33 -2.98 11.66 -4 12 C-3.33501617 7.61110675 -1.81242323 4.0188515 0 0 Z " fill="#67D2BF" transform="translate(512,283)"/>
<path d="M0 0 C0.66 0 1.32 0 2 0 C2.06058594 0.61488281 2.12117188 1.22976563 2.18359375 1.86328125 C2.26738281 2.67152344 2.35117187 3.47976563 2.4375 4.3125 C2.51871094 5.11300781 2.59992188 5.91351562 2.68359375 6.73828125 C2.95265693 9.16087179 2.95265693 9.16087179 4 12 C3.01 13.485 3.01 13.485 2 15 C1.66048381 13.43883181 1.32867456 11.87598662 1 10.3125 C0.814375 9.44238281 0.62875 8.57226562 0.4375 7.67578125 C0.01027953 5.06287036 -0.07616201 2.64186962 0 0 Z " fill="#F2E0D4" transform="translate(506,703)"/>
<path d="M0 0 C0.33 0 0.66 0 1 0 C1.19658808 1.41543415 1.38187546 2.83244031 1.5625 4.25 C1.66691406 5.03890625 1.77132813 5.8278125 1.87890625 6.640625 C2.00027349 9.00532874 1.69633257 10.7511037 1 13 C0.34 13 -0.32 13 -1 13 C-1.33 13.66 -1.66 14.32 -2 15 C-1.47462276 9.9697924 -0.89405214 4.98114761 0 0 Z " fill="#3E86AF" transform="translate(432,380)"/>
<path d="M0 0 C10.62228146 -0.55689631 10.62228146 -0.55689631 15 3 C15.66 3.66 16.32 4.32 17 5 C11.18733381 4.21450457 5.63122376 2.59317541 0 1 C0 0.67 0 0.34 0 0 Z " fill="#E7A358" transform="translate(628,378)"/>
<path d="M0 0 C4.95 2.31 9.9 4.62 15 7 C15 7.33 15 7.66 15 8 C13.02 8 11.04 8 9 8 C8.67 7.34 8.34 6.68 8 6 C6.34561387 5.30341637 4.67745682 4.63903117 3 4 C2.01 3.34 1.02 2.68 0 2 C0 1.34 0 0.68 0 0 Z " fill="#DEC73A" transform="translate(583,337)"/>
<path d="M0 0 C0.66 0 1.32 0 2 0 C1.25749403 4.08378283 0.17076699 8.01939223 -1 12 C-1.99 11.34 -2.98 10.68 -4 10 C-3.67 8.35 -3.34 6.7 -3 5 C-2.34 5 -1.68 5 -1 5 C-0.67 3.35 -0.34 1.7 0 0 Z " fill="#239892" transform="translate(485,563)"/>
<path d="M0 0 C1 2 1 2 0.44140625 4.1640625 C0.15136719 4.97617187 -0.13867188 5.78828125 -0.4375 6.625 C-0.72496094 7.44226563 -1.01242187 8.25953125 -1.30859375 9.1015625 C-1.65083984 10.04128906 -1.65083984 10.04128906 -2 11 C-3.32 10.34 -4.64 9.68 -6 9 C-5.18914873 7.68648079 -4.37626942 6.37421332 -3.5625 5.0625 C-3.11003906 4.33160156 -2.65757812 3.60070312 -2.19140625 2.84765625 C-1 1 -1 1 0 0 Z " fill="#9F542D" transform="translate(504,538)"/>
<path d="M0 0 C4.875 4.625 4.875 4.625 6 8 C5.01 8.66 4.02 9.32 3 10 C3 9.34 3 8.68 3 8 C2.01 7.67 1.02 7.34 0 7 C0 4.69 0 2.38 0 0 Z " fill="#213A74" transform="translate(432,512)"/>
<path d="M0 0 C1.25127906 3.54667178 0.72285053 5.72253438 -0.4375 9.25 C-0.72496094 10.14203125 -1.01242187 11.0340625 -1.30859375 11.953125 C-1.53675781 12.62859375 -1.76492188 13.3040625 -2 14 C-2.33 14 -2.66 14 -3 14 C-3 10.04 -3 6.08 -3 2 C-2.34 2 -1.68 2 -1 2 C-0.67 1.34 -0.34 0.68 0 0 Z " fill="#E7A45A" transform="translate(646,450)"/>
<path d="M0 0 C0.66 0 1.32 0 2 0 C2.3697479 5.54621849 2.3697479 5.54621849 0.625 7.6875 C0.08875 8.120625 -0.4475 8.55375 -1 9 C-1.66 9.99 -2.32 10.98 -3 12 C-2.14285714 3.42857143 -2.14285714 3.42857143 0 0 Z " fill="#2D93CA" transform="translate(380,367)"/>
<path d="M0 0 C0.66 0.33 1.32 0.66 2 1 C1.608125 1.721875 1.21625 2.44375 0.8125 3.1875 C-0.3618754 6.04900238 -0.3618754 6.04900238 1.375 8.6875 C2.179375 9.8321875 2.179375 9.8321875 3 11 C3 11.66 3 12.32 3 13 C2.34 13 1.68 13 1 13 C0.32880451 11.5437455 -0.33681807 10.08492133 -1 8.625 C-1.37125 7.81289063 -1.7425 7.00078125 -2.125 6.1640625 C-3 4 -3 4 -3 2 C-2.01 1.34 -1.02 0.68 0 0 Z " fill="#223B78" transform="translate(398,495)"/>
<path d="M0 0 C0.33 0 0.66 0 1 0 C0.52060632 4.71403788 0.03165952 8.66579301 -2 13 C-2.66 13 -3.32 13 -4 13 C-4.1875 9.625 -4.1875 9.625 -4 6 C-3.01 5.34 -2.02 4.68 -1 4 C-0.27617533 1.94074861 -0.27617533 1.94074861 0 0 Z " fill="#DF772A" transform="translate(581,475)"/>
<path d="M0 0 C2.97 0.33 5.94 0.66 9 1 C9 1.33 9 1.66 9 2 C8.071875 2.0825 7.14375 2.165 6.1875 2.25 C2.91490121 2.70257552 2.91490121 2.70257552 1.125 5.0625 C0.75375 5.701875 0.3825 6.34125 0 7 C0 6.34 0 5.68 0 5 C-0.66 5 -1.32 5 -2 5 C-1.34 3.35 -0.68 1.7 0 0 Z " fill="#DBF0F3" transform="translate(382,354)"/>
<path d="M0 0 C1.81325551 0.11351517 3.62563357 0.24112961 5.4375 0.375 C6.95150391 0.47941406 6.95150391 0.47941406 8.49609375 0.5859375 C9.73552734 0.79089844 9.73552734 0.79089844 11 1 C11.33 1.66 11.66 2.32 12 3 C10.56465159 3.2226746 9.12654475 3.42761906 7.6875 3.625 C6.88699219 3.74101563 6.08648437 3.85703125 5.26171875 3.9765625 C3 4 3 4 0 2 C0 1.34 0 0.68 0 0 Z " fill="#63093C" transform="translate(464,695)"/>
<path d="M0 0 C0.99 0.33 1.98 0.66 3 1 C2.01 2.485 2.01 2.485 1 4 C0.34 4 -0.32 4 -1 4 C-1 4.66 -1 5.32 -1 6 C-2.62626404 7.38232443 -4.2925002 8.71937515 -6 10 C-6.66 9.67 -7.32 9.34 -8 9 C-6.38405168 6.95880212 -4.7143618 4.95927063 -3 3 C-2.34 3 -1.68 3 -1 3 C-0.67 2.01 -0.34 1.02 0 0 Z " fill="#E49646" transform="translate(519,569)"/>
<path d="M0 0 C1.32 0.66 2.64 1.32 4 2 C2.02 4.31 0.04 6.62 -2 9 C-2 5.61976483 -1.12544378 3.16531063 0 0 Z " fill="#B45829" transform="translate(517,521)"/>
<path d="M0 0 C3.63 0 7.26 0 11 0 C12.35439668 2.70879335 12.06501451 5.00933268 12 8 C10.49440461 6.03617993 9.10868317 4.21736634 8 2 C6.10466658 1.53476937 6.10466658 1.53476937 3.9375 1.375 C2.638125 1.25125 1.33875 1.1275 0 1 C0 0.67 0 0.34 0 0 Z " fill="#F5ECCF" transform="translate(633,355)"/>
<path d="M0 0 C1.45947705 0.06006078 2.91779272 0.1488689 4.375 0.25 C5.59316406 0.31960938 5.59316406 0.31960938 6.8359375 0.390625 C9 1 9 1 10.2890625 3.046875 C10.64097656 4.01367188 10.64097656 4.01367188 11 5 C2.83035714 3.25892857 2.83035714 3.25892857 0 0 Z " fill="#F6F1D4" transform="translate(606,346)"/>
<path d="M0 0 C2.39763185 2.39763185 2.34280586 3.33273498 2.625 6.625 C2.69976563 7.44226563 2.77453125 8.25953125 2.8515625 9.1015625 C2.90054688 9.72804688 2.94953125 10.35453125 3 11 C2.34 11 1.68 11 1 11 C0.63743142 9.5437328 0.28520207 8.08488815 -0.0625 6.625 C-0.35833984 5.40683594 -0.35833984 5.40683594 -0.66015625 4.1640625 C-1 2 -1 2 0 0 Z " fill="#CD5837" transform="translate(510,723)"/>
<path d="M0 0 C0.66 0.33 1.32 0.66 2 1 C1.875 2.8125 1.875 2.8125 1 5 C-2.0625 6.75 -2.0625 6.75 -5 8 C-5.33 7.01 -5.66 6.02 -6 5 C-4.02 3.35 -2.04 1.7 0 0 Z " fill="#C43184" transform="translate(539,685)"/>
<path d="M0 0 C0.99 0.33 1.98 0.66 3 1 C1.37660195 2.70884005 -0.29319053 4.37446717 -2 6 C-2.66 6 -3.32 6 -4 6 C-4.33 6.99 -4.66 7.98 -5 9 C-5.33 7.68 -5.66 6.36 -6 5 C-5.01 4.67 -4.02 4.34 -3 4 C-3 3.34 -3 2.68 -3 2 C-2.01 2 -1.02 2 0 2 C0 1.34 0 0.68 0 0 Z " fill="#E5A757" transform="translate(568,574)"/>
<path d="M0 0 C0.33 0 0.66 0 1 0 C1.33 6.93 1.66 13.86 2 21 C1.01 21 0.02 21 -1 21 C-0.67 14.07 -0.34 7.14 0 0 Z " fill="#4AC8BE" transform="translate(520,495)"/>
<path d="M0 0 C0.45375 0.66 0.9075 1.32 1.375 2 C1.91125 2.66 2.4475 3.32 3 4 C3.66 4 4.32 4 5 4 C4.67 6.31 4.34 8.62 4 11 C2 10 2 10 0.875 7.1875 C0 4 0 4 0 0 Z " fill="#163470" transform="translate(387,475)"/>
<path d="M0 0 C0.66 1.65 1.32 3.3 2 5 C1.01 5.495 1.01 5.495 0 6 C0 5.34 0 4.68 0 4 C-1.134375 3.87625 -2.26875 3.7525 -3.4375 3.625 C-4.613125 3.41875 -5.78875 3.2125 -7 3 C-7.33 2.34 -7.66 1.68 -8 1 C-5.29120665 -0.35439668 -2.99066732 -0.06501451 0 0 Z " fill="#B9BEC0" transform="translate(517,774)"/>
<path d="M0 0 C0.99 0.66 1.98 1.32 3 2 C-0.465 4.97 -0.465 4.97 -4 8 C-3.6875 5.125 -3.6875 5.125 -3 2 C-2.01 1.34 -1.02 0.68 0 0 Z " fill="#E3914B" transform="translate(538,602)"/>
<path d="M0 0 C0.66 0 1.32 0 2 0 C2 3 2 3 -0.3125 5.5625 C-3 8 -3 8 -6 10 C-5.49259538 5.60249328 -2.91706686 3.13051078 0 0 Z " fill="#F6E8D8" transform="translate(516,569)"/>
<path d="M0 0 C0.99 0.33 1.98 0.66 3 1 C0.69 3.31 -1.62 5.62 -4 8 C-4.99 7.67 -5.98 7.34 -7 7 C-4.69 4.69 -2.38 2.38 0 0 Z " fill="#F9F2DE" transform="translate(580,565)"/>
<path d="M0 0 C4.24822374 0.47202486 6.19989709 2.96655518 9 6 C6.69 5.67 4.38 5.34 2 5 C1.34 3.35 0.68 1.7 0 0 Z " fill="#1F598D" transform="translate(440,452)"/>
<path d="M0 0 C1.65 0.33 3.3 0.66 5 1 C3.75 4.4375 3.75 4.4375 2 8 C-0.1875 8.9375 -0.1875 8.9375 -2 9 C-1.67 8.01 -1.34 7.02 -1 6 C-0.42773651 3.90170055 0 2.17877079 0 0 Z " fill="#1E6396" transform="translate(440,428)"/>
<path d="M0 0 C-1.78953185 0.83790789 -3.58169695 1.67019396 -5.375 2.5 C-6.87160156 3.19609375 -6.87160156 3.19609375 -8.3984375 3.90625 C-11 5 -11 5 -13 5 C-13 4.34 -13 3.68 -13 3 C-11.68 3 -10.36 3 -9 3 C-9 2.34 -9 1.68 -9 1 C-5.47051709 -0.66670026 -3.71727674 -1.13583456 0 0 Z " fill="#35A8C9" transform="translate(423,368)"/>
<path d="M0 0 C0.66 0 1.32 0 2 0 C2.50615298 1.26839526 3.00469099 2.53983102 3.5 3.8125 C3.91765625 4.87404297 3.91765625 4.87404297 4.34375 5.95703125 C5 8 5 8 5 11 C4.34 11 3.68 11 3 11 C2.67 9.02 2.34 7.04 2 5 C1.34 5 0.68 5 0 5 C0 3.35 0 1.7 0 0 Z " fill="#EA9A47" transform="translate(643,363)"/>
<path d="M0 0 C0.99 0.99 1.98 1.98 3 3 C2.01 4.98 1.02 6.96 0 9 C-0.66 8.67 -1.32 8.34 -2 8 C-1.125 2.25 -1.125 2.25 0 0 Z " fill="#6B1045" transform="translate(458,670)"/>
<path d="M0 0 C0.33 0.99 0.66 1.98 1 3 C0.67 3.66 0.34 4.32 0 5 C0.66 5.33 1.32 5.66 2 6 C0.1875 7.0625 0.1875 7.0625 -2 8 C-2.99 7.67 -3.98 7.34 -5 7 C-3.35 4.69 -1.7 2.38 0 0 Z " fill="#A82470" transform="translate(537,653)"/>
<path d="M0 0 C2.64752004 2.57784846 4.94432065 4.91648098 7 8 C5.68 8 4.36 8 3 8 C1.02 4.535 1.02 4.535 -1 1 C-0.67 0.67 -0.34 0.34 0 0 Z " fill="#E1F1F1" transform="translate(449,621)"/>
<path d="M0 0 C0.99 0.33 1.98 0.66 3 1 C2.25 2.9375 2.25 2.9375 1 5 C-1.125 5.75 -1.125 5.75 -3 6 C-1.125 1.125 -1.125 1.125 0 0 Z " fill="#D97C3D" transform="translate(491,603)"/>
<path d="M0 0 C1.65 0 3.3 0 5 0 C4.01 0.495 4.01 0.495 3 1 C3 1.66 3 2.32 3 3 C3.66 3.33 4.32 3.66 5 4 C2.69 4.33 0.38 4.66 -2 5 C-1.34 3.35 -0.68 1.7 0 0 Z " fill="#288EC7" transform="translate(388,376)"/>
<path d="M0 0 C2.64 0 5.28 0 8 0 C7.34 1.32 6.68 2.64 6 4 C3.69 3.34 1.38 2.68 -1 2 C-0.67 1.34 -0.34 0.68 0 0 Z " fill="#791E53" transform="translate(469,698)"/>
<path d="M0 0 C0.33 0.66 0.66 1.32 1 2 C-1.31 3.65 -3.62 5.3 -6 7 C-7.32 6.34 -8.64 5.68 -10 5 C-6.7 3.35 -3.4 1.7 0 0 Z " fill="#B73884" transform="translate(519,672)"/>
<path d="M0 0 C1.5 1.3125 1.5 1.3125 3 3 C3 3.99 3 4.98 3 6 C1.35 6.33 -0.3 6.66 -2 7 C-2 5.02 -2 3.04 -2 1 C-1.34 0.67 -0.68 0.34 0 0 Z " fill="#1C3670" transform="translate(454,505)"/>
<path d="M0 0 C3.96 0 7.92 0 12 0 C12 0.33 12 0.66 12 1 C7.545 1.495 7.545 1.495 3 2 C2.67 3.65 2.34 5.3 2 7 C0 4 0 4 0 0 Z " fill="#F6E7CA" transform="translate(617,473)"/>
<path d="M0 0 C4.79280002 0.80904103 6.13520113 3.25984591 9 7 C6 7 6 7 4.39453125 5.46875 C3.87246094 4.8190625 3.35039063 4.169375 2.8125 3.5 C2.28269531 2.8503125 1.75289062 2.200625 1.20703125 1.53125 C0.80871094 1.0259375 0.41039062 0.520625 0 0 Z " fill="#EFF3D7" transform="translate(541,305)"/>
<path d="M0 0 C3.36720387 1.39332574 4.9859524 2.9789286 7 6 C4.37886292 6 2.49064888 5.68707555 0 5 C0 3.35 0 1.7 0 0 Z " fill="#BBD527" transform="translate(536,302)"/>
<path d="M0 0 C2.875 -0.125 2.875 -0.125 6 0 C6.66 0.66 7.32 1.32 8 2 C3.545 2.495 3.545 2.495 -1 3 C-1.33 4.32 -1.66 5.64 -2 7 C-2 5.35 -2 3.7 -2 2 C-1.34 2 -0.68 2 0 2 C0 1.34 0 0.68 0 0 Z " fill="#A73A6E" transform="translate(507,700)"/>
<path d="M0 0 C-0.33 2.31 -0.66 4.62 -1 7 C-1.99 6.34 -2.98 5.68 -4 5 C-4.66 4.67 -5.32 4.34 -6 4 C-2.25 0 -2.25 0 0 0 Z " fill="#C85020" transform="translate(518,627)"/>
<path d="M0 0 C0.33 0 0.66 0 1 0 C1.33 2.97 1.66 5.94 2 9 C1.34 9 0.68 9 0 9 C0 8.01 0 7.02 0 6 C-0.99 6.33 -1.98 6.66 -3 7 C-2.38722388 4.03824877 -1.74627478 2.61941217 0 0 Z " fill="#0C676A" transform="translate(472,608)"/>
<path d="M0 0 C0.33 0.66 0.66 1.32 1 2 C2.32 2 3.64 2 5 2 C5.33 1.34 5.66 0.68 6 0 C6.33 1.32 6.66 2.64 7 4 C6.01 4 5.02 4 4 4 C4 4.66 4 5.32 4 6 C3.01 5.67 2.02 5.34 1 5 C0.67 3.35 0.34 1.7 0 0 Z " fill="#132860" transform="translate(453,509)"/>
<path d="M0 0 C0.68359375 1.765625 0.68359375 1.765625 1 4 C-0.21484375 5.921875 -0.21484375 5.921875 -1.9375 7.75 C-2.50339844 8.36359375 -3.06929687 8.9771875 -3.65234375 9.609375 C-4.31943359 10.29773438 -4.31943359 10.29773438 -5 11 C-5 7.58678765 -4.33132534 6.60527115 -2.5 3.8125 C-2.0359375 3.09707031 -1.571875 2.38164062 -1.09375 1.64453125 C-0.7328125 1.10183594 -0.371875 0.55914062 0 0 Z " fill="#F1D38A" transform="translate(583,501)"/>
<path d="M0 0 C0.33 0 0.66 0 1 0 C1.8125 3.25 1.8125 3.25 2 7 C-0.4375 9.4375 -0.4375 9.4375 -3 11 C-2.01 7.37 -1.02 3.74 0 0 Z " fill="#F3D594" transform="translate(591,482)"/>
<path d="M0 0 C0.66 0 1.32 0 2 0 C1.67 3.3 1.34 6.6 1 10 C0.34 10 -0.32 10 -1 10 C-1.02689216 8.52093108 -1.04634621 7.04172517 -1.0625 5.5625 C-1.07410156 4.73878906 -1.08570313 3.91507812 -1.09765625 3.06640625 C-1 1 -1 1 0 0 Z " fill="#153271" transform="translate(417,485)"/>
<path d="M0 0 C2 2 2 2 2.125 4.625 C2.08375 5.40875 2.0425 6.1925 2 7 C1.34 7 0.68 7 0 7 C0 6.34 0 5.68 0 5 C-0.99 5.33 -1.98 5.66 -3 6 C-2.67 4.68 -2.34 3.36 -2 2 C-1.34 2 -0.68 2 0 2 C0 1.34 0 0.68 0 0 Z " fill="#7D1B4B" transform="translate(567,591)"/>
<path d="M0 0 C2.32472205 2.85306797 3.7508258 5.54074837 5 9 C2.69 7.02 0.38 5.04 -2 3 C-1.34 2.67 -0.68 2.34 0 2 C0 1.34 0 0.68 0 0 Z " fill="#BD664C" transform="translate(515,735)"/>
<path d="M0 0 C1.77706209 2.66559313 2.87548273 5.0280615 4 8 C3.01 8 2.02 8 1 8 C-0.6875 5.5 -0.6875 5.5 -2 3 C-1.34 3 -0.68 3 0 3 C0 2.01 0 1.02 0 0 Z " fill="#6C174B" transform="translate(455,683)"/>
<path d="M0 0 C0.99 0.33 1.98 0.66 3 1 C2.1875 3.4375 2.1875 3.4375 1 6 C0.01 6.33 -0.98 6.66 -2 7 C-1.125 2.25 -1.125 2.25 0 0 Z " fill="#2CA19E" transform="translate(451,543)"/>
<path d="M0 0 C2.475 0.495 2.475 0.495 5 1 C4.34 2.65 3.68 4.3 3 6 C2.34 6 1.68 6 1 6 C0.67 4.02 0.34 2.04 0 0 Z " fill="#D56327" transform="translate(600,536)"/>
<path d="M0 0 C0.99 0.33 1.98 0.66 3 1 C3 2.65 3 4.3 3 6 C1.68 6 0.36 6 -1 6 C-0.67 4.02 -0.34 2.04 0 0 Z " fill="#193E7F" transform="translate(446,488)"/>
<path d="M0 0 C1.37562854 1.28965176 2.70766393 2.62689293 4 4 C4 4.66 4 5.32 4 6 C3.38125 5.814375 2.7625 5.62875 2.125 5.4375 C-0.04160178 4.76313824 -0.04160178 4.76313824 -2 6 C-1.34 4.02 -0.68 2.04 0 0 Z " fill="#F2DDBD" transform="translate(585,471)"/>
<path d="M0 0 C0.33 0.66 0.66 1.32 1 2 C1.66 2 2.32 2 3 2 C2.74438677 4.3431213 2.40729228 6.67843403 2 9 C1.01 9.495 1.01 9.495 0 10 C0 6.7 0 3.4 0 0 Z " fill="#E4F7F5" transform="translate(561,401)"/>
<path d="M0 0 C4.875 4.75 4.875 4.75 6 7 C5.01 8.485 5.01 8.485 4 10 C0 3.375 0 3.375 0 0 Z " fill="#C8DD6C" transform="translate(525,288)"/>
<path d="M0 0 C3.3 0 6.6 0 10 0 C8.68 1.65 7.36 3.3 6 5 C5.34 4.01 4.68 3.02 4 2 C2.68 1.34 1.36 0.68 0 0 Z " fill="#A7424D" transform="translate(480,703)"/>
<path d="M0 0 C1.32 0.33 2.64 0.66 4 1 C1.03 3.475 1.03 3.475 -2 6 C-2.66 5.67 -3.32 5.34 -4 5 C-2.68 3.35 -1.36 1.7 0 0 Z " fill="#D66E2E" transform="translate(526,615)"/>
<path d="M0 0 C2.475 0.99 2.475 0.99 5 2 C5 3.98 5 5.96 5 8 C2.20127563 5.47211993 0.54226981 3.79588866 0 0 Z " fill="#1D8182" transform="translate(447,615)"/>
<path d="M0 0 C2.56616632 3.84924948 2.55097676 6.4349304 3 11 C0.5091419 8.07594919 -0.59599278 5.83806856 -1 2 C-0.67 1.34 -0.34 0.68 0 0 Z " fill="#872B5B" transform="translate(569,596)"/>
<path d="M0 0 C0.66 0 1.32 0 2 0 C2 2.31 2 4.62 2 7 C1.34 7 0.68 7 0 7 C-0.38133299 5.0085944 -0.71325582 3.00720923 -1 1 C-0.67 0.67 -0.34 0.34 0 0 Z " fill="#1B9292" transform="translate(446,555)"/>
<path d="M0 0 C0.66 0.33 1.32 0.66 2 1 C0.68 3.31 -0.64 5.62 -2 8 C-3.0625 6.125 -3.0625 6.125 -4 4 C-3.67 3.34 -3.34 2.68 -3 2 C-2.01 2 -1.02 2 0 2 C0 1.34 0 0.68 0 0 Z " fill="#276A9B" transform="translate(438,439)"/>
<path d="M0 0 C0.33 0 0.66 0 1 0 C1 2.31 1 4.62 1 7 C-0.32 7.33 -1.64 7.66 -3 8 C-1.125 2.25 -1.125 2.25 0 0 Z " fill="#356FA1" transform="translate(420,420)"/>
<path d="M0 0 C1.125 1.625 1.125 1.625 2 4 C1.125 7.25 1.125 7.25 0 10 C-0.33 10 -0.66 10 -1 10 C-1.125 2.25 -1.125 2.25 0 0 Z " fill="#226197" transform="translate(422,416)"/>
<path d="M0 0 C2.475 0.99 2.475 0.99 5 2 C3.68 2.33 2.36 2.66 1 3 C1 5.64 1 8.28 1 11 C0.67 11 0.34 11 0 11 C0 7.37 0 3.74 0 0 Z " fill="#EAB756" transform="translate(569,358)"/>
<path d="M0 0 C0.66 0.33 1.32 0.66 2 1 C0.02 3.97 0.02 3.97 -2 7 C-2.99 6.67 -3.98 6.34 -5 6 C-3.86695008 2.60085025 -2.87481525 1.94745549 0 0 Z " fill="#93115C" transform="translate(546,644)"/>
<path d="M0 0 C0.99 0.33 1.98 0.66 3 1 C-1.39453125 5.00390625 -1.39453125 5.00390625 -3 6 C-3.99 5.67 -4.98 5.34 -6 5 C-1.60546875 0.99609375 -1.60546875 0.99609375 0 0 Z " fill="#F8F1DE" transform="translate(570,575)"/>
<path d="M0 0 C-1.15173355 2.46800047 -2.04783565 4.04783565 -4 6 C-4.99 5.67 -5.98 5.34 -7 5 C-2.25 0 -2.25 0 0 0 Z " fill="#F5E9D4" transform="translate(592,555)"/>
<path d="M0 0 C0.66 0 1.32 0 2 0 C1.67 1.98 1.34 3.96 1 6 C0.01 5.67 -0.98 5.34 -2 5 C-2 4.01 -2 3.02 -2 2 C-1.34 2 -0.68 2 0 2 C0 1.34 0 0.68 0 0 Z " fill="#1C3072" transform="translate(414,526)"/>
<path d="M0 0 C1.32 0 2.64 0 4 0 C3.67 1.32 3.34 2.64 3 4 C1.68 4 0.36 4 -1 4 C-0.67 2.68 -0.34 1.36 0 0 Z " fill="#18417C" transform="translate(429,472)"/>
<path d="M0 0 C1.37432457 3.81756824 0.67975039 7.07255329 0 11 C-0.66 11 -1.32 11 -2 11 C-1.125 3.375 -1.125 3.375 0 0 Z " fill="#E49C56" transform="translate(560,459)"/>
<path d="M0 0 C0.66 0 1.32 0 2 0 C1.25 4.75 1.25 4.75 -1 7 C-1.625 4.625 -1.625 4.625 -2 2 C-1.34 1.34 -0.68 0.68 0 0 Z " fill="#E7963B" transform="translate(645,447)"/>
<path d="M0 0 C0.33 0 0.66 0 1 0 C1 1.98 1 3.96 1 6 C0.34 6 -0.32 6 -1 6 C-1.33 6.66 -1.66 7.32 -2 8 C-2.125 5.125 -2.125 5.125 -2 2 C-1.34 1.34 -0.68 0.68 0 0 Z " fill="#F8F4EA" transform="translate(566,428)"/>
<path d="M0 0 C0.66 0.33 1.32 0.66 2 1 C0.35 2.98 -1.3 4.96 -3 7 C-3.66 6.34 -4.32 5.68 -5 5 C-3.35 3.35 -1.7 1.7 0 0 Z " fill="#5AD5BA" transform="translate(478,322)"/>
<path d="M0 0 C4 4.75 4 4.75 4 7 C3.01 7.33 2.02 7.66 1 8 C-0.35439668 5.29120665 -0.06501451 2.99066732 0 0 Z " fill="#80D5CB" transform="translate(527,311)"/>
</svg>
